<?xml version="1.0" standalone="no"?>
<!DOCTYPE svg PUBLIC "-//W3C//DTD SVG 1.1//EN" "http://www.w3.org/Graphics/SVG/1.1/DTD/svg11.dtd" >
<svg xmlns="http://www.w3.org/2000/svg">
<metadata></metadata>
<defs>
<font id="myriad_proregular" horiz-adv-x="1050" >
<font-face units-per-em="2048" ascent="1536" descent="-512" />
<missing-glyph horiz-adv-x="434" />
<glyph unicode="&#xfb01;" horiz-adv-x="1071" d="M29 854v137h139v53q0 199 113 316t319 117q162 0 252 -66l-51 -137q-80 57 -209 57q-246 0 -246 -291v-49h576v-991h-179v854h-397v-854h-178v854h-139z" />
<glyph unicode="&#xfb02;" horiz-adv-x="1071" d="M29 854v137h139v43q0 219 139 342q119 100 318 101q178 0 297 -66v-1411h-179v1311q-49 27 -147 26q-250 0 -250 -297v-49h232v-137h-232v-854h-178v854h-139z" />
<glyph unicode="&#xfb03;" horiz-adv-x="1669" d="M29 854v137h139v35q0 213 119 330q96 96 254 96q92 0 174 -45l-49 -133q-57 35 -125 35q-82 0 -129 -52q-66 -72 -66 -231v-35h418v53q0 199 113 316q115 117 321 117q154 0 246 -64l-53 -135q-84 53 -201 53q-248 0 -248 -291v-49h578v-991h-181v854h-395v-854h-180v854 h-418v-854h-178v854h-139z" />
<glyph unicode="&#xfb04;" horiz-adv-x="1669" d="M29 854v137h139v23q0 225 115 338q100 100 268 100q90 0 164 -39l-47 -135q-55 31 -123 31q-86 0 -133 -54q-66 -68 -66 -227v-37h418v43q0 217 141 342q117 100 318 101q176 0 297 -66v-1411h-179v1311q-53 27 -149 26q-250 0 -250 -297v-49h234v-137h-232v-854h-180 v854h-418v-854h-178v854h-139z" />
<glyph horiz-adv-x="2048" />
<glyph horiz-adv-x="2048" />
<glyph unicode="&#xd;" horiz-adv-x="2048" />
<glyph unicode=" "  horiz-adv-x="434" />
<glyph unicode="&#x09;" horiz-adv-x="434" />
<glyph unicode="&#xa0;" horiz-adv-x="434" />
<glyph unicode="!" horiz-adv-x="471" d="M115 104q0 55 35 93q33 35 86 34q121 0 120 -127q0 -55 -32 -90q-33 -37 -88 -37h-3q-51 0 -86 37q-33 37 -32 90zM137 1380h197l-29 -983h-139z" />
<glyph unicode="&#x22;" horiz-adv-x="690" d="M104 1417h179l-35 -491h-111zM410 1417h178l-35 -491h-109z" />
<glyph unicode="#" horiz-adv-x="1017" d="M76 401v121h186l39 297h-176v121h194l54 391h119l-52 -391h213l54 391h120l-51 -391h168v-121h-186l-37 -297h176v-121h-195l-53 -401h-123l54 401h-213l-54 -401h-123l54 401h-168zM385 522h213l39 297h-213z" />
<glyph unicode="$" d="M133 121l49 137q133 -88 295 -88q109 0 176 57q68 55 68 144q0 150 -232 243q-338 133 -337 355q0 127 84 217t225 112v207h127v-198q154 -4 266 -72l-51 -135q-121 70 -258 69q-109 0 -168 -57q-49 -49 -49 -119q0 -76 59 -129q53 -47 195 -104q317 -129 317 -375 q0 -127 -82 -221q-90 -102 -242 -127v-213h-129v207q-193 4 -313 90z" />
<glyph unicode="%" horiz-adv-x="1622" d="M61 938q0 193 95 307q90 109 227 109h2q141 0 223 -103q84 -106 84 -295q0 -201 -94 -315q-88 -104 -225 -104q-131 0 -217 100q-92 111 -95 301zM205 944q-4 -129 43 -213q47 -86 129 -86q172 0 172 303q0 297 -172 297h-2q-80 0 -127 -88q-43 -82 -43 -213zM360 -25 l783 1381h114l-784 -1381h-113zM930 385q0 195 94 309q90 109 227 109h2q139 0 222 -103q84 -106 84 -294q0 -201 -95 -316q-88 -104 -223 -104q-131 0 -217 100q-92 109 -94 299zM1071 393q-2 -131 45 -213q47 -86 129 -86q172 0 172 303q0 297 -172 297h-2q-80 0 -127 -88 q-45 -82 -45 -213z" />
<glyph unicode="&#x26;" horiz-adv-x="1239" d="M63 365q0 256 271 403v6q-115 143 -115 289q0 135 90 233q98 106 260 107q131 0 217 -80q88 -82 88 -213q0 -219 -303 -369v-6q242 -281 336 -385q92 141 133 404h164q-59 -344 -198 -510l227 -244h-213q-49 49 -129 135q-170 -158 -404 -158q-195 0 -313 117 q-111 109 -111 271zM236 391q0 -119 79 -198q80 -80 203 -80h2q168 0 283 125q-258 283 -389 434q-178 -115 -178 -281zM383 1079q0 -119 104 -248q229 131 230 271q0 72 -37 121q-45 57 -123 57h-2q-80 0 -129 -59q-43 -57 -43 -142z" />
<glyph unicode="'" horiz-adv-x="385" d="M104 1417h179l-35 -491h-111z" />
<glyph unicode="(" horiz-adv-x="581" d="M131 584q2 483 268 837h142q-258 -346 -258 -837q0 -469 258 -832h-142q-268 354 -268 832z" />
<glyph unicode=")" horiz-adv-x="581" d="M41 -248q258 360 258 838q0 477 -258 831h139q268 -344 269 -833q0 -479 -269 -836h-139z" />
<glyph unicode="*" horiz-adv-x="849" d="M61 975v139l301 -39v4l-192 250l125 72l127 -285h4l125 287l123 -70l-195 -256v-4l309 41v-139l-309 37v-4l197 -246l-129 -74l-123 287h-4l-133 -289l-117 74l195 250v4z" />
<glyph unicode="+" horiz-adv-x="1220" d="M82 485v123h463v482h131v-482h463v-123h-463v-485h-131v485h-463z" />
<glyph unicode="," horiz-adv-x="423" d="M35 -252q82 229 121 490l200 20q-84 -313 -194 -498z" />
<glyph unicode="-" horiz-adv-x="628" d="M61 487v134h506v-134h-506z" />
<glyph unicode="." horiz-adv-x="423" d="M106 106q0 57 35 93q35 37 88 37t88 -37q33 -35 33 -93q0 -57 -33 -92q-35 -37 -90 -37h-2q-51 0 -86 37q-33 37 -33 92z" />
<glyph unicode="/" horiz-adv-x="702" d="M-2 -82l571 1485h140l-574 -1485h-137z" />
<glyph unicode="0" d="M74 662q0 328 131 514q123 178 332 178q208 0 325 -178q115 -176 115 -496q0 -338 -121 -520t-342 -183q-199 0 -315 177q-123 182 -125 508zM254 659q0 -256 74 -401q72 -141 196 -141q272 0 273 555q0 543 -271 542q-122 0 -194 -141q-78 -150 -78 -414z" />
<glyph unicode="1" d="M213 1176l291 155h153v-1331h-174v1163h-4l-231 -125z" />
<glyph unicode="2" d="M92 0v111l141 137q276 264 375 395q119 160 121 301q0 260 -264 260q-147 0 -283 -112l-57 127q160 135 377 135q201 0 311 -123q96 -106 96 -264q0 -170 -125 -349q-92 -135 -333 -366l-107 -98v-4h598v-150h-850z" />
<glyph unicode="3" d="M86 68l49 139q131 -84 295 -84q158 0 238 88q66 70 63 170q-2 131 -106 203q-94 63 -238 63h-100v135h100q113 0 199 54q98 63 98 172q0 86 -55 141q-61 59 -178 59q-143 0 -267 -88l-47 131q139 102 348 103q184 0 289 -99q92 -86 92 -219q0 -223 -245 -313v-4 q129 -27 210 -113q86 -94 87 -229q0 -170 -123 -279q-133 -121 -363 -121q-209 0 -346 91z" />
<glyph unicode="4" d="M31 362v119l594 850h194v-827h187v-142h-187v-362h-170v362h-618zM213 504h436v444q0 104 6 209h-6q-53 -100 -110 -196l-326 -453v-4z" />
<glyph unicode="5" d="M86 59l45 138q125 -74 285 -74q131 0 221 78q94 82 94 211q-4 295 -383 295q-70 0 -184 -15l86 639h637v-151h-508l-51 -342q61 8 108 8q168 0 287 -72q190 -109 190 -342q0 -197 -139 -326q-141 -129 -356 -129q-205 0 -332 82z" />
<glyph unicode="6" d="M70 545q0 375 225 600q168 166 426 196q68 10 131 11v-148q-61 4 -135 -8q-201 -33 -326 -172q-113 -125 -137 -301h6q117 154 322 154q178 0 288 -117q113 -119 113 -314q0 -193 -117 -325q-127 -143 -325 -144q-213 0 -342 154q-129 156 -129 414zM248 498 q4 -170 78 -273q78 -109 215 -108h2q115 0 186 88q72 88 72 231q0 141 -76 223q-74 82 -199 82q-174 0 -258 -163q-20 -35 -20 -80z" />
<glyph unicode="7" d="M117 1182v149h839v-119l-579 -1212h-187l578 1178v4h-651z" />
<glyph unicode="8" d="M76 338q0 244 264 356l-2 6q-211 100 -211 299q0 156 119 256q115 98 293 99q182 0 290 -103q96 -90 97 -225q0 -207 -219 -311v-6q268 -106 268 -344q0 -172 -131 -281q-129 -106 -322 -107q-203 0 -327 107q-119 102 -119 254zM260 362q-4 -104 68 -178q76 -76 198 -75 q119 -1 195 67q72 68 72 170q0 207 -293 291q-240 -70 -240 -275zM297 1012q0 -178 254 -246q203 70 203 242q0 90 -52 149q-61 68 -174 68q-109 -1 -172 -64q-59 -59 -59 -149z" />
<glyph unicode="9" d="M84 881q0 195 125 331q131 141 330 142q203 0 321 -154q119 -152 119 -407q0 -401 -229 -625q-156 -152 -388 -178q-88 -14 -165 -10v147q41 -4 145 6q166 23 279 129q141 127 176 354h-6q-117 -143 -314 -143q-176 0 -287 119q-106 115 -106 289zM262 893 q0 -125 70 -203q70 -80 186 -80q180 0 262 140q16 27 17 65q0 180 -66 287q-72 115 -207 115h-2q-113 0 -186 -91q-74 -92 -74 -233z" />
<glyph unicode=":" horiz-adv-x="423" d="M106 104q0 57 35 93q35 37 88 36q117 0 121 -129q0 -55 -33 -90q-35 -37 -90 -37h-2q-51 0 -86 37q-33 37 -33 90zM106 827q0 57 35 95q35 37 88 36q117 0 121 -131q0 -55 -33 -90q-35 -37 -90 -37h-2q-51 0 -86 37q-33 37 -33 90z" />
<glyph unicode=";" horiz-adv-x="423" d="M35 -252q82 221 123 490l198 20q-90 -319 -196 -498zM123 827q0 57 35 95q33 37 86 36q55 0 88 -36q33 -37 33 -95q0 -55 -33 -90q-33 -37 -88 -37h-2q-51 0 -86 37q-33 37 -33 90z" />
<glyph unicode="&#x3c;" horiz-adv-x="1220" d="M135 489v111l950 490v-142l-800 -401v-4l800 -402v-141z" />
<glyph unicode="=" horiz-adv-x="1220" d="M82 289v123h1057v-123h-1057zM82 690v123h1057v-123h-1057z" />
<glyph unicode="&#x3e;" horiz-adv-x="1220" d="M135 0v141l807 402v4l-807 401v142l950 -488v-115z" />
<glyph unicode="?" horiz-adv-x="831" d="M104 1323q117 82 293 82q166 0 260 -92q82 -82 82 -209q0 -152 -176 -356q-125 -150 -117 -304l3 -51h-160l-4 53q-20 178 127 353q143 172 143 282q0 172 -195 176q-123 0 -206 -63zM244 104q0 57 35 93q35 37 88 36q53 0 88 -36q33 -35 32 -93q0 -55 -32 -90 q-35 -37 -90 -37h-3q-51 0 -86 37q-33 37 -32 90z" />
<glyph unicode="@" horiz-adv-x="1509" d="M88 426q0 328 203 553q213 236 545 235q264 0 432 -167q164 -168 164 -426q0 -221 -111 -359q-102 -129 -254 -129q-68 0 -109 43q-47 49 -43 137h-8q-106 -180 -289 -180q-92 0 -155 68q-66 74 -66 190q0 197 135 338q141 147 351 148q127 0 219 -43l-70 -371 q-45 -225 62 -230q84 -2 149 99q72 109 72 276q0 229 -129 367q-133 145 -367 145q-258 0 -432 -184q-182 -195 -182 -498q0 -252 149 -405q145 -150 377 -150q182 0 309 72l33 -88q-156 -82 -364 -82q-260 0 -437 172q-184 180 -184 469zM532 399q0 -156 136 -155 q84 0 161 92q70 84 89 186l43 232q-47 14 -103 14q-135 0 -229 -111q-96 -109 -97 -258z" />
<glyph unicode="A" horiz-adv-x="1253" d="M51 0l469 1380h215l471 -1380h-190l-148 434h-489l-143 -434h-185zM416 573h415l-135 398q-29 84 -71 252h-4q-35 -143 -70 -250z" />
<glyph unicode="B" horiz-adv-x="1110" d="M156 4v1358q137 29 325 29q254 0 379 -101q115 -86 115 -243q0 -217 -234 -304v-4q115 -29 193 -108q92 -96 92 -238q0 -164 -117 -276q-141 -129 -477 -129q-158 0 -276 16zM334 135q47 -8 149 -8q354 0 355 268q0 133 -105 205q-94 61 -252 62h-147v-527zM334 797h162 q139 0 221 65q78 63 78 166q0 225 -303 225q-100 0 -158 -12v-444z" />
<glyph unicode="C" horiz-adv-x="1187" d="M274 1202q199 201 521 201q211 0 327 -62l-43 -145q-119 57 -278 57q-246 0 -391 -149q-147 -152 -148 -420q0 -256 139 -403q141 -152 392 -152q172 0 290 57l37 -141q-135 -68 -364 -68q-301 0 -488 181q-194 189 -194 517q0 327 200 527z" />
<glyph unicode="D" horiz-adv-x="1363" d="M156 4v1358q190 29 379 29q375 0 559 -172q195 -178 194 -496q0 -342 -198 -537q-198 -198 -607 -198h-4q-180 0 -323 16zM334 141q57 -10 180 -10q285 0 436 154q152 152 152 432v7q0 245 -137 382q-145 143 -422 143q-125 0 -209 -18v-1090z" />
<glyph unicode="E" horiz-adv-x="1007" d="M156 0v1380h745v-149h-567v-436h536v-148h-536v-497h598v-150h-776z" />
<glyph unicode="F" horiz-adv-x="997" d="M156 0v1380h743v-149h-565v-459h522v-147h-522v-625h-178z" />
<glyph unicode="G" horiz-adv-x="1323" d="M74 682q2 315 200 510q205 203 547 203q213 0 344 -64l-43 -145q-133 59 -305 59q-254 0 -403 -147q-152 -150 -152 -408q0 -260 146 -409q143 -147 387 -148q164 0 237 37v412h-280v143h454v-664q-208 -75 -418 -75h-6q-326 0 -516 182q-193 186 -192 514z" />
<glyph unicode="H" horiz-adv-x="1335" d="M156 0v1380h178v-577h667v577h181v-1380h-181v647h-667v-647h-178z" />
<glyph unicode="I" horiz-adv-x="489" d="M156 0v1380h178v-1380h-178z" />
<glyph unicode="J" horiz-adv-x="757" d="M8 10l27 146q68 -27 149 -27q129 0 187 70q67 79 67 266v6v909h178v-923q0 -479 -417 -480q-111 0 -191 33z" />
<glyph unicode="K" horiz-adv-x="1110" d="M156 0v1380h178v-665h6q47 68 109 147l421 518h222l-500 -585l538 -795h-210l-455 678l-131 -152v-526h-178z" />
<glyph unicode="L" horiz-adv-x="966" d="M156 0v1380h178v-1230h590v-150h-768z" />
<glyph unicode="M" horiz-adv-x="1646" d="M119 0l96 1380h227l236 -667q94 -279 139 -465h6q45 182 146 465l245 667h228l86 -1380h-174l-35 606q-21 390 -21 567v29h-6q-74 -252 -174 -524l-244 -670h-135l-223 658q-109 326 -160 536h-4q-6 -270 -26 -610l-37 -592h-170z" />
<glyph unicode="N" horiz-adv-x="1347" d="M156 0v1380h194l443 -698q150 -236 247 -449l4 3q-20 231 -20 567v577h168v-1380h-180l-439 700q-170 270 -258 461l-6 -2q14 -244 15 -569v-590h-168z" />
<glyph unicode="O" horiz-adv-x="1411" d="M74 678q0 326 182 526q178 199 459 199q280 0 452 -195q168 -195 168 -503q0 -344 -188 -541q-176 -186 -453 -187q-274 0 -446 195q-174 195 -174 506zM264 682q0 -231 115 -389q123 -170 326 -170q205 0 327 170q115 158 115 403q0 225 -109 383q-123 178 -331 178 q-211 0 -332 -174q-111 -160 -111 -401z" />
<glyph unicode="P" horiz-adv-x="1089" d="M156 0v1364q160 27 342 27q260 0 387 -115q121 -104 121 -289q0 -184 -107 -295q-140 -151 -418 -151h-4q-94 0 -143 12v-553h-178zM334 698q55 -14 147 -14q164 0 254 76q92 78 92 219q0 270 -325 270q-115 0 -168 -14v-537z" />
<glyph unicode="Q" horiz-adv-x="1411" d="M74 676q0 328 182 530q178 197 461 197q279 0 450 -197q168 -193 168 -501q0 -258 -110 -435q-104 -166 -283 -227v-8q221 -55 404 -88l-52 -150q-281 74 -528 160q-57 20 -84 20q-260 10 -426 187q-182 193 -182 512zM264 680v-8q0 -224 115 -381q123 -168 323 -168h3 q205 0 327 168q115 160 115 405q0 225 -109 385q-121 176 -327 176q-215 0 -336 -176q-111 -159 -111 -393v-8z" />
<glyph unicode="R" horiz-adv-x="1101" d="M156 0v1362q139 29 342 29q274 0 399 -113q109 -96 109 -262q0 -264 -261 -352v-7q152 -53 203 -278q76 -319 107 -379h-185q-31 55 -92 330q-31 143 -92 202q-63 61 -184 66h-168v-598h-178zM334 733h182q141 0 227 72q84 72 84 190q0 254 -317 258q-119 0 -176 -16 v-504z" />
<glyph unicode="S" horiz-adv-x="1009" d="M86 68l45 149q147 -90 320 -90q135 0 213 66q76 63 75 169q0 174 -260 275q-364 129 -364 390q0 165 123 269q125 106 323 107q186 0 305 -68l-49 -145q-119 65 -258 65h-4q-129 0 -201 -67q-59 -57 -59 -139q0 -94 65 -154q59 -55 209 -113q352 -135 353 -405 q0 -170 -119 -279q-131 -121 -365 -121q-217 0 -352 91z" />
<glyph unicode="T" horiz-adv-x="1017" d="M-2 1229v151h1022v-151h-422v-1229h-180v1229h-420z" />
<glyph unicode="U" horiz-adv-x="1325" d="M154 567v813h180v-817q0 -221 92 -336q84 -104 229 -104q336 0 336 440v817h180v-805q0 -303 -149 -458q-135 -139 -373 -140q-496 0 -495 590z" />
<glyph unicode="V" horiz-adv-x="1142" d="M8 1380h193l215 -680q104 -330 147 -516h4q43 180 158 514l233 682h191l-494 -1380h-196z" />
<glyph unicode="W" horiz-adv-x="1732" d="M31 1380h188l164 -698q63 -268 102 -477h4q23 139 113 479l184 696h187l168 -700q74 -307 96 -473h4q27 143 111 477l182 696h182l-391 -1380h-186l-174 719q-66 272 -91 450h-4q-39 -213 -106 -450l-197 -719h-186z" />
<glyph unicode="X" horiz-adv-x="1169" d="M51 0l422 698l-405 682h206l183 -323q86 -150 127 -234h6q49 102 125 234l188 323h205l-420 -671l430 -709h-207l-176 305q-106 172 -160 273h-4q-61 -125 -149 -275l-166 -303h-205z" />
<glyph unicode="Y" horiz-adv-x="1107" d="M27 1380h202l195 -381q82 -160 137 -284h4q33 76 140 284l198 381h203l-463 -792v-588h-180v586z" />
<glyph unicode="Z" horiz-adv-x="1132" d="M61 0v104l766 1121v6h-700v149h932v-108l-762 -1116v-6h772v-150h-1008z" />
<glyph unicode="[" horiz-adv-x="581" d="M168 -229v1634h375v-113h-236v-1409h236v-112h-375z" />
<glyph unicode="\" horiz-adv-x="698" d="M4 1403h139l557 -1485h-139z" />
<glyph unicode="]" horiz-adv-x="581" d="M39 -117h235v1409h-235v113h375v-1634h-375v112z" />
<glyph unicode="^" horiz-adv-x="1220" d="M123 387l424 944h127l424 -944h-144l-342 795h-4l-342 -795h-143z" />
<glyph unicode="_" horiz-adv-x="1024" d="M0 -154h1024v-102h-1024v102z" />
<glyph unicode="`" horiz-adv-x="614" d="M45 1419h199l178 -293h-127z" />
<glyph unicode="a" horiz-adv-x="987" d="M72 262q0 180 153 275q153 94 431 94h12v20q0 229 -226 230q-143 0 -258 -74l-41 119q135 88 326 88q377 0 377 -406v-370q0 -147 16 -238h-164l-14 125h-6q-104 -147 -303 -148q-143 0 -228 89q-76 80 -75 196zM252 283q0 -84 51 -129q45 -43 119 -43q182 0 240 165 q10 31 10 58v172h-28q-392 0 -392 -223z" />
<glyph unicode="b" horiz-adv-x="1165" d="M141 0q8 135 9 256v1198h178v-623h4q104 182 338 183q184 0 301 -140q116 -138 116 -355v-11q0 -250 -139 -397q-125 -133 -305 -134q-227 0 -332 187h-6l-8 -164h-156zM328 397q0 -25 8 -65q27 -94 98 -152q76 -59 172 -59q139 0 221 104q80 104 80 277q0 158 -76 258 q-79 110 -217 110h-2q-94 0 -170 -59q-78 -61 -104 -162q-10 -51 -10 -74v-178z" />
<glyph unicode="c" horiz-adv-x="917" d="M78 485q0 231 145 377q147 150 387 150q147 0 250 -51l-41 -140q-82 47 -209 47q-164 0 -260 -110q-90 -102 -90 -264q0 -168 98 -271q96 -100 246 -100q109 0 221 49l31 -135q-115 -59 -285 -60q-223 0 -358 142q-135 139 -135 366z" />
<glyph unicode="d" horiz-adv-x="1155" d="M80 481v7q0 235 131 382q125 143 313 144q213 0 299 -152h4v592h181v-1198q0 -166 8 -256h-162l-8 172h-4q-98 -195 -338 -195q-182 0 -303 140q-121 141 -121 364zM262 489q0 -158 74 -258q77 -108 216 -108h3q92 0 164 57q76 59 100 158q8 33 8 78v172q0 45 -8 76 q-20 90 -90 147q-72 61 -170 61q-137 0 -219 -108q-78 -106 -78 -275z" />
<glyph unicode="e" horiz-adv-x="1026" d="M78 479q0 229 125 379q129 156 340 156q217 0 325 -166q84 -125 84 -301q0 -29 -6 -84h-696q2 -172 104 -264q90 -80 236 -80q154 0 274 51l31 -129q-141 -63 -330 -64q-225 0 -358 140q-129 135 -129 362zM252 592h526v9q0 105 -47 181q-68 102 -203 103 q-125 0 -200 -101q-63 -80 -76 -192z" />
<glyph unicode="f" horiz-adv-x="598" d="M29 854v137h139v47q0 238 115 346q94 92 241 93q84 0 154 -29l-25 -139q-47 22 -109 22h-5q-193 0 -193 -287v-53h240v-137h-240v-854h-178v854h-139z" />
<glyph unicode="g" horiz-adv-x="1144" d="M78 487q0 240 137 390q129 137 309 137q219 0 310 -172h4l8 149h158q-8 -143 -9 -272v-576q0 -326 -141 -452q-127 -119 -360 -119q-207 0 -330 82l45 137q125 -78 291 -78q319 0 319 346v111h-4q-100 -166 -315 -166q-182 0 -303 139q-119 137 -119 344zM260 498 q0 -154 74 -252q80 -104 219 -105q186 0 250 185q14 43 14 96v178q0 51 -10 82q-59 190 -252 190q-131 0 -211 -100q-84 -104 -84 -274z" />
<glyph unicode="h" horiz-adv-x="1136" d="M150 0v1454h180v-618h4q45 80 129 127q88 51 184 51q131 0 223 -84q123 -111 123 -340v-590h-180v569q0 295 -229 295q-182 0 -242 -180q-12 -29 -12 -86v-598h-180z" />
<glyph unicode="i" horiz-adv-x="479" d="M127 1270q0 47 33 80q30 32 77 32h3h2q108 0 108 -112v-6q0 -43 -28 -72q-33 -33 -86 -33q-47 0 -78 33q-31 31 -31 78zM150 0v991h180v-991h-180z" />
<glyph unicode="j" horiz-adv-x="497" d="M-92 -291q137 10 196 76q68 76 68 373v833h180v-903q0 -287 -119 -407q-113 -113 -307 -113zM150 1270q0 49 32 80q32 32 79 32h3h3q47 0 77 -32q29 -31 29 -80v-6q0 -43 -29 -72q-33 -33 -84 -33q-49 0 -80 33t-30 78z" />
<glyph unicode="k" horiz-adv-x="960" d="M150 0v1454h178v-917h4q29 41 88 112l291 342h217l-383 -407l436 -584h-219l-342 475l-92 -102v-373h-178z" />
<glyph unicode="l" horiz-adv-x="483" d="M150 0v1454h180v-1454h-180z" />
<glyph unicode="m" horiz-adv-x="1708" d="M141 991h158l8 -160h6q106 182 312 183q207 0 280 -199h4q43 80 111 129q92 70 219 70q125 0 213 -86q113 -113 113 -344v-584h-176v561q0 305 -215 305q-156 0 -213 -164q-14 -43 -15 -90v-612h-176v594q0 123 -51 194q-55 78 -156 78q-166 0 -223 -180q-14 -37 -14 -88 v-598h-176v723q0 160 -9 268z" />
<glyph unicode="n" horiz-adv-x="1136" d="M141 991h160l10 -164h4q96 186 328 187q133 0 227 -84q123 -111 123 -338v-592h-180v571q0 293 -229 293q-86 0 -154 -55q-63 -51 -88 -129q-12 -33 -12 -84v-596h-180v723q0 160 -9 268z" />
<glyph unicode="o" horiz-adv-x="1124" d="M78 487q0 242 143 387q135 139 348 140q213 -1 346 -142q131 -141 132 -368q0 -256 -158 -402q-135 -125 -336 -125q-205 0 -338 138q-137 141 -137 372zM260 494q0 -164 84 -273q85 -108 215 -108h2q129 0 215 108q86 111 86 277q0 147 -67 254q-82 127 -230 127 q-149 0 -231 -121q-74 -106 -74 -264z" />
<glyph unicode="p" horiz-adv-x="1165" d="M141 991h162l8 -170h4q117 193 353 193q182 0 299 -140q121 -141 120 -364q0 -254 -137 -399q-125 -133 -313 -134q-211 0 -305 156h-4v-539h-178v1074q0 135 -9 323zM328 403q0 -29 8 -73q25 -94 98 -152q76 -59 172 -59q141 0 221 106q80 102 80 277q0 156 -76 258 q-81 110 -217 110h-2q-94 0 -170 -61t-102 -162q-12 -45 -12 -74v-170z" />
<glyph unicode="q" horiz-adv-x="1153" d="M78 479q0 258 145 406q127 129 303 129q217 0 305 -172h5l6 149h170q-6 -125 -6 -272v-1125h-181v560h-4q-96 -176 -323 -177q-178 0 -297 138q-123 143 -123 364zM260 489q0 -158 72 -258q79 -110 218 -110h3q195 0 258 196q14 43 14 86v187q0 45 -8 76q-20 86 -88 143 q-72 61 -170 61q-137 0 -219 -106q-80 -104 -80 -275z" />
<glyph unicode="r" horiz-adv-x="669" d="M141 991h158l6 -194h8q74 217 275 217q27 0 51 -6v-170q-27 6 -61 6q-94 0 -160 -66q-63 -61 -82 -166q-8 -49 -8 -84v-528h-178v682q0 186 -9 309z" />
<glyph unicode="s" horiz-adv-x="811" d="M80 47l45 137q109 -71 234 -71h3q193 0 193 147q0 115 -184 182q-262 94 -262 281q0 123 92 205q94 86 250 86q139 0 243 -62l-45 -131q-90 57 -203 58q-78 0 -122 -39q-43 -39 -43 -97q0 -96 188 -168q260 -98 260 -299q0 -133 -96 -215q-100 -84 -275 -84 q-160 0 -278 70z" />
<glyph unicode="t" horiz-adv-x="677" d="M37 854v137h153v183l177 55v-238h258v-137h-258v-535q0 -192 134 -192h1q66 0 104 12l8 -135q-66 -27 -159 -27q-127 0 -195 78q-70 72 -70 258v541h-153z" />
<glyph unicode="u" horiz-adv-x="1128" d="M143 412v579h181v-549q0 -315 221 -315q170 0 237 164q16 43 17 92v608h180v-721q0 -166 8 -270h-160l-10 162h-4q-109 -184 -328 -185q-141 0 -229 86q-113 111 -113 349z" />
<glyph unicode="v" horiz-adv-x="985" d="M27 991h192l195 -557q53 -143 80 -254h6q27 94 84 254l192 557h189l-390 -991h-172z" />
<glyph unicode="w" horiz-adv-x="1507" d="M37 991h184l131 -504q55 -213 74 -315h6q20 92 88 315l162 504h152l153 -495q55 -180 88 -324h6q20 123 76 322l141 497h179l-320 -991h-164l-151 473q-59 186 -88 326h-4q-29 -141 -91 -328l-159 -471h-164z" />
<glyph unicode="x" horiz-adv-x="948" d="M16 0l353 506l-336 485h200l142 -213q41 -59 100 -162h6l99 164l139 211h194l-338 -479l349 -512h-205l-146 223q-41 61 -106 172h-4q-14 -27 -105 -172l-143 -223h-199z" />
<glyph unicode="y" horiz-adv-x="964" d="M18 991h197l217 -585q39 -111 64 -203h4q64 204 64 209l-1 -2l197 581h190l-270 -706q-184 -485 -340 -621q-109 -96 -221 -117l-45 152q86 27 157 88q96 76 152 201q14 33 14 43q0 14 -12 47z" />
<glyph unicode="z" horiz-adv-x="876" d="M37 0v104l448 584l129 154v4h-536v145h756l-3 -112l-442 -576q-53 -72 -127 -156v-4h580v-143h-805z" />
<glyph unicode="{" horiz-adv-x="581" d="M57 537v104q166 0 166 154q0 55 -16 170t-17 172q0 268 297 268h43v-113h-36q-162 -2 -162 -176q0 -61 14 -147t14 -156q2 -180 -147 -221v-4q150 -37 147 -223q0 -70 -14 -156q-14 -90 -14 -148q0 -176 162 -178h36v-112h-43q-297 0 -297 280q0 57 17 168q16 111 16 166 q0 152 -166 152z" />
<glyph unicode="|" horiz-adv-x="489" d="M176 -512v2048h137v-2048h-137z" />
<glyph unicode="}" horiz-adv-x="581" d="M51 -117h35q164 2 164 178q0 29 -14 148q-16 98 -17 156q0 186 148 223v4q-147 41 -148 221q0 57 17 156q14 115 14 147q0 174 -162 176h-37v113h41q299 0 299 -268q0 -57 -16 -172t-17 -170q0 -154 166 -154v-104q-166 0 -166 -152q0 -55 17 -166q16 -111 16 -168 q0 -281 -297 -280h-43v112z" />
<glyph unicode="~" horiz-adv-x="1220" d="M104 430q-6 147 66 232q68 78 178 77q96 0 289 -92q182 -86 256 -86q106 0 111 172h122q6 -160 -65 -239q-63 -70 -170 -70q-102 0 -297 90q-184 90 -246 90q-117 0 -123 -174h-121z" />
<glyph unicode="&#xa1;" horiz-adv-x="471" d="M115 872q0 55 35 93q35 35 88 34h2q51 0 84 -34q33 -37 32 -93q0 -55 -32 -90q-33 -37 -88 -37q-53 0 -89 37q-33 35 -32 90zM137 -399l29 977h139l31 -977h-199z" />
<glyph unicode="&#xa2;" d="M137 668q0 199 113 336q113 139 299 170v204h127v-200q125 0 223 -52l-41 -137q-86 51 -213 51q-147 0 -239 -106q-88 -102 -89 -258q0 -166 93 -266q88 -94 227 -95q121 0 233 52l33 -129q-98 -53 -227 -60v-207h-127v207q-186 23 -297 144q-115 129 -115 346z" />
<glyph unicode="&#xa3;" d="M115 0v102q233 119 233 359q0 78 -10 143h-211v129h190q-23 135 -22 221q0 180 111 291q111 109 282 109q141 0 223 -51l-41 -136q-74 41 -182 41q-225 0 -225 -256q0 -88 24 -219h295v-129h-278q12 -150 -8 -229q-33 -129 -142 -221v-4h611v-150h-850z" />
<glyph unicode="&#xa4;" d="M59 1071l91 94l141 -155q94 84 233 84h2q139 0 236 -82l145 153l90 -94l-159 -145q72 -102 71 -240q0 -152 -71 -252l153 -151l-92 -90l-139 157q-90 -88 -240 -88q-145 0 -233 82l-137 -151l-89 90l148 145q-76 98 -76 246q0 145 80 252zM279 676q0 -137 81 -217 q70 -68 160 -68q98 0 166 68q78 80 78 225q0 115 -62 193q-68 88 -180 88h-2q-109 0 -176 -84q-66 -82 -65 -205z" />
<glyph unicode="&#xa5;" d="M33 1331h192l213 -422q49 -104 82 -186h6q33 94 82 190l221 418h189l-367 -620h267v-103h-320v-147h320v-103h-320v-358h-170v358h-317v103h317v147h-317v103h266z" />
<glyph unicode="&#xa6;" horiz-adv-x="489" d="M176 356h137v-716h-137v716zM176 664v716h137v-716h-137z" />
<glyph unicode="&#xa7;" horiz-adv-x="1062" d="M121 696q0 143 149 240q-72 57 -75 172q0 131 110 213q106 78 268 78t283 -68l-43 -117q-106 66 -246 66q-92 0 -151 -41q-61 -43 -62 -111q0 -74 70 -118q49 -33 186 -78q162 -53 238 -115q96 -82 96 -209q0 -145 -133 -248q78 -63 78 -180q0 -152 -123 -233 q-109 -74 -266 -74q-203 0 -322 84l49 119q119 -84 271 -84q102 0 164 43q66 45 65 125q0 72 -53 119q-53 45 -197 94q-180 61 -258 123q-98 78 -98 200zM266 717q0 -113 217 -193q180 -63 234 -98q78 55 78 158q0 127 -183 190q-211 80 -252 105q-94 -68 -94 -160v-2z" />
<glyph unicode="&#xa8;" horiz-adv-x="614" d="M14 1272q0 43 31 74t74 30q43 0 71 -30q29 -29 29 -74q0 -43 -29 -74t-71 -31h-2q-43 0 -74 31q-29 31 -29 74zM395 1272q0 43 31 74q29 31 72 30q43 0 71 -30q29 -29 29 -74q0 -43 -29 -74t-71 -31h-2q-43 0 -72 31t-29 74z" />
<glyph unicode="&#xa9;" horiz-adv-x="1386" d="M74 696q0 262 180 447q182 184 442 184h2q258 0 437 -184q178 -184 178 -447q0 -264 -178 -448q-180 -186 -439 -187q-260 0 -442 187q-180 184 -180 448zM176 690q0 -229 150 -385q150 -158 370 -160q217 -2 365 158q150 160 149 393q0 229 -149 387q-147 160 -365 160 h-2q-219 0 -368 -160q-150 -160 -150 -393zM354 684q0 170 119 279q111 102 272 102q166 0 226 -55l-25 -80q-88 47 -198 47q-139 0 -216 -82q-72 -76 -71 -205q0 -125 74 -205q78 -84 215 -84q125 0 206 54l25 -78q-96 -63 -252 -64q-174 0 -276 109q-98 102 -99 262z" />
<glyph unicode="&#xaa;" horiz-adv-x="708" d="M68 729q0 113 108 174q109 63 303 60v20q0 41 -26 76q-39 51 -125 51q-104 0 -176 -55l-33 88q94 68 233 67q260 0 260 -286v-219q0 -86 13 -160h-123l-13 86h-4q-76 -96 -206 -96q-98 0 -156 57q-55 53 -55 137zM203 737q0 -104 119 -104q88 0 139 74q20 35 20 55v112 q-279 4 -278 -137z" />
<glyph unicode="&#xab;" horiz-adv-x="858" d="M59 516l271 377h145l-274 -377l274 -377h-145zM395 516l271 377h145l-274 -377l274 -377h-145z" />
<glyph unicode="&#xac;" horiz-adv-x="1220" d="M82 694v123h1057v-569h-131v446h-926z" />
<glyph unicode="&#xad;" horiz-adv-x="595" d="M61 487v134h506v-134h-506z" />
<glyph unicode="&#xae;" horiz-adv-x="858" d="M84 1063q0 139 100 237q102 98 246 99h2q143 0 244 -99q98 -98 98 -237q0 -143 -98 -240q-100 -98 -246 -98q-145 0 -246 98q-100 96 -100 240zM170 1063q0 -113 74 -191q76 -78 188 -77q109 -2 184 77q72 78 72 191t-74 190q-74 78 -184 78h-2q-111 0 -184 -78 q-74 -78 -74 -190zM299 889v334q61 12 129 12q78 0 117 -27q33 -25 33 -71q0 -59 -70 -80v-4q47 -14 61 -82t25 -82h-84q-8 10 -27 80q-8 53 -69 53h-37v-133h-78zM379 1077h37q78 0 78 49q0 51 -72 52q-27 0 -43 -4v-97z" />
<glyph unicode="&#xaf;" horiz-adv-x="614" d="M78 1200v117h461v-117h-461z" />
<glyph unicode="&#xb0;" horiz-adv-x="651" d="M61 1126q-2 117 78 199q80 80 195 80h2q119 0 196 -80q72 -78 72 -186q0 -121 -84 -199q-80 -76 -190 -76q-117 0 -195 78q-74 76 -74 184zM172 1128q0 -72 45 -118q47 -49 115 -49q70 0 114 49q47 49 48 125q0 68 -37 116q-45 57 -125 58h-2q-74 0 -119 -58 q-39 -51 -39 -123z" />
<glyph unicode="&#xb1;" horiz-adv-x="1220" d="M82 0v123h1057v-123h-1057zM82 649v123h463v399h131v-399h463v-123h-463v-409h-131v409h-463z" />
<glyph unicode="&#xb2;" horiz-adv-x="636" d="M25 907v76l129 121q258 233 258 354q0 143 -156 144q-80 0 -172 -64l-43 92q100 86 250 86q135 0 209 -74q63 -63 63 -157q0 -164 -272 -404l-64 -57v-4h351v-113h-553z" />
<glyph unicode="&#xb3;" horiz-adv-x="624" d="M18 954l37 103q78 -53 191 -53q88 0 137 45q43 39 41 92q0 72 -68 110q-59 33 -149 33h-55v94h57q68 0 121 29q63 37 65 102q0 100 -129 101q-96 0 -174 -54l-35 97q98 63 236 63q125 0 190 -59q59 -51 60 -133q0 -131 -158 -185v-4q86 -12 137 -65q53 -55 53 -133 q0 -100 -83 -168q-90 -72 -240 -72t-234 57z" />
<glyph unicode="&#xb4;" horiz-adv-x="614" d="M207 1126l180 293h199l-250 -293h-129z" />
<glyph unicode="&#xb5;" horiz-adv-x="1132" d="M150 -41v1032h178v-585q0 -123 53 -199q57 -82 170 -82q170 0 237 166q16 43 17 92v608h178v-719q0 -150 94 -155l-14 -131q-27 -8 -62 -9q-154 0 -176 177h-6q-90 -172 -284 -172q-156 0 -218 108v-123q0 -283 23 -373h-162q-29 86 -28 365z" />
<glyph unicode="&#xb6;" horiz-adv-x="1048" d="M74 930q-4 190 110 307q143 147 453 147q162 0 240 -18v-1466h-127v1360h-146v-1360h-129v641h-14q-139 0 -254 96q-131 113 -133 293z" />
<glyph unicode="&#xb7;" horiz-adv-x="423" d="M92 539q0 55 35 92t88 37q117 0 121 -129q0 -55 -35 -93q-35 -37 -88 -36h-2q-53 0 -86 36q-35 37 -33 93z" />
<glyph unicode="&#xb8;" horiz-adv-x="614" d="M113 -375l30 88q49 -31 111 -30q88 0 88 65q-2 72 -160 86l97 170h110l-67 -106q59 -8 100 -45q43 -41 43 -97q0 -166 -213 -166q-80 0 -139 35z" />
<glyph unicode="&#xb9;" horiz-adv-x="499" d="M45 1616l193 90h124v-799h-143v674h-4l-147 -72z" />
<glyph unicode="&#xba;" horiz-adv-x="727" d="M37 866q0 156 98 252q94 92 232 92h2q145 0 235 -94q86 -92 86 -239q-2 -166 -104 -261q-92 -82 -224 -81q-139 0 -231 90q-94 94 -94 241zM174 870q0 -100 57 -168q55 -66 134 -65q82 0 135 65q53 66 53 170q0 90 -45 156q-53 80 -146 80h-2q-90 0 -141 -78 q-45 -68 -45 -160z" />
<glyph unicode="&#xbb;" horiz-adv-x="858" d="M47 893h146l272 -377l-272 -377h-144l273 377zM381 893h145l273 -377l-273 -377h-143l272 377z" />
<glyph unicode="&#xbc;" horiz-adv-x="1554" d="M88 1253l193 90h125v-798h-144v674h-4l-147 -72zM283 -23l778 1377h115l-777 -1377h-116zM813 211v80l395 518h152v-498h123v-100h-123v-211h-137v211h-410zM961 311h262v242l6 129h-4l-68 -113z" />
<glyph unicode="&#xbd;" horiz-adv-x="1554" d="M59 1253l191 90h127v-798h-144v674h-4l-147 -72zM244 -23l776 1377h115l-777 -1377h-114zM901 0v76l129 121q258 233 258 354q0 143 -155 143q-80 0 -172 -63l-43 92q100 86 249 86q135 0 209 -74q63 -63 64 -157q0 -156 -273 -404l-63 -57v-4h350v-113h-553z" />
<glyph unicode="&#xbe;" horiz-adv-x="1554" d="M61 592l37 102q78 -53 191 -53q88 0 137 45q43 39 43 92q-2 72 -70 111q-59 33 -147 33h-57v94h57q70 2 121 31q66 35 65 100q0 100 -131 100q-86 0 -172 -53l-35 94q94 66 234 66q125 0 192 -60q59 -51 60 -133q0 -131 -156 -184v-4q84 -12 135 -66q53 -55 53 -133 q0 -100 -81 -168q-90 -72 -240 -71q-147 0 -236 57zM358 -23l779 1377h114l-776 -1377h-117zM836 211v80l395 518h149v-498h125v-100h-125v-211h-135v211h-409zM981 313l2 -2h262v242l6 129h-4q-59 -102 -67 -113z" />
<glyph unicode="&#xbf;" horiz-adv-x="831" d="M113 -125q0 152 178 354q123 152 115 303l-3 54h160l6 -54q20 -176 -129 -354q-141 -170 -141 -280q0 -176 195 -179q121 0 206 66l50 -131q-121 -82 -295 -82q-166 0 -258 92q-84 84 -84 211zM365 870q0 57 32 93q35 37 88 36h2q119 0 119 -129q0 -55 -33 -90 q-33 -37 -88 -37t-88 37q-33 35 -32 90z" />
<glyph unicode="&#xc0;" horiz-adv-x="1253" d="M51 0l469 1380h215l471 -1380h-190l-148 434h-489l-143 -434h-185zM330 1694h217l190 -238h-147zM416 573h415l-135 398q-29 84 -71 252h-4q-35 -143 -70 -250z" />
<glyph unicode="&#xc1;" horiz-adv-x="1253" d="M51 0l469 1380h215l471 -1380h-190l-148 434h-489l-143 -434h-185zM416 573h415l-135 398q-29 84 -71 252h-4q-35 -143 -70 -250zM522 1454l191 240h217l-260 -240h-148z" />
<glyph unicode="&#xc2;" horiz-adv-x="1253" d="M51 0l469 1380h215l471 -1380h-190l-148 434h-489l-143 -434h-185zM356 1454l211 234h138l213 -234h-150l-131 141h-4l-131 -141h-146zM416 573h415l-135 398q-29 84 -71 252h-4q-35 -143 -70 -250z" />
<glyph unicode="&#xc3;" horiz-adv-x="1253" d="M51 0l469 1380h215l471 -1380h-190l-148 434h-489l-143 -434h-185zM381 1464q-4 94 35 152q37 57 104 57q43 0 121 -41q66 -37 98 -37q47 0 56 80h94q4 -199 -137 -198q-47 0 -125 39q-74 39 -97 38q-47 0 -53 -90h-96zM416 573h415l-135 398q-29 84 -71 252h-4 q-35 -143 -70 -250z" />
<glyph unicode="&#xc4;" horiz-adv-x="1253" d="M51 0l469 1380h215l471 -1380h-190l-148 434h-489l-143 -434h-185zM346 1577q0 43 29 72q29 31 71 30q43 0 72 -28q27 -31 27 -74q0 -45 -27 -74q-29 -31 -72 -30h-2q-43 0 -71 30q-27 29 -27 74zM416 573h415l-135 398q-29 84 -71 252h-4q-35 -143 -70 -250zM725 1577 q0 43 29 72q31 31 73 30q43 0 72 -28q27 -31 27 -74q0 -104 -101 -104h-2q-43 0 -69 30q-29 31 -29 74z" />
<glyph unicode="&#xc5;" horiz-adv-x="1253" d="M51 0l469 1380h215l471 -1380h-190l-148 434h-489l-143 -434h-185zM416 573h415l-135 398q-29 84 -71 252h-4q-35 -143 -70 -250zM426 1614q0 80 55 131q59 55 152 55h2q90 0 147 -53q53 -53 54 -133q0 -78 -58 -129q-57 -51 -145 -51q-92 0 -150 53q-57 51 -57 127z M532 1614q0 -41 27 -72q29 -33 70 -33q100 0 100 107q0 45 -27 76q-29 33 -73 32h-2q-94 0 -95 -110z" />
<glyph unicode="&#xc6;" horiz-adv-x="1613" d="M-2 0l631 1380h864v-149h-588l53 -440h515v-148h-492l61 -493h506l-2 -150h-657l-62 487h-424l-221 -487h-184zM463 631h344l-45 397q-23 172 -25 223h-8q-20 -57 -88 -217z" />
<glyph unicode="&#xc7;" horiz-adv-x="1198" d="M74 678q0 324 200 524q199 201 521 201q211 0 327 -62l-43 -145q-119 57 -278 57q-246 0 -391 -149q-147 -152 -148 -420q0 -256 139 -403q141 -152 392 -152q172 0 290 57l37 -141q-121 -63 -360 -65l-49 -82q143 -27 143 -154q0 -84 -66 -127q-57 -39 -145 -39 q-86 0 -145 35l28 92q49 -27 113 -27q88 0 88 64q0 70 -160 86l86 158q-262 31 -415 204q-164 184 -164 488z" />
<glyph unicode="&#xc8;" horiz-adv-x="1007" d="M156 0v1380h745v-149h-567v-436h536v-148h-536v-497h598v-150h-776zM244 1694h217l190 -238h-147z" />
<glyph unicode="&#xc9;" horiz-adv-x="1007" d="M156 0v1380h745v-149h-567v-436h536v-148h-536v-497h598v-150h-776zM428 1454l190 240h218l-261 -240h-147z" />
<glyph unicode="&#xca;" horiz-adv-x="1007" d="M156 0v1380h745v-149h-567v-436h536v-148h-536v-497h598v-150h-776zM248 1454l211 234h137l213 -234h-150l-131 141h-4l-131 -141h-145z" />
<glyph unicode="&#xcb;" horiz-adv-x="1007" d="M156 0v1380h745v-149h-567v-436h536v-148h-536v-497h598v-150h-776zM233 1581q0 43 29 72q29 31 72 30q43 0 72 -28q27 -31 26 -74q0 -45 -26 -74q-29 -31 -72 -30h-2q-43 0 -72 30q-27 29 -27 74zM612 1581q0 43 29 72q31 31 74 30q43 0 71 -28q27 -31 27 -74 q0 -104 -100 -104h-2q-43 0 -70 30q-29 31 -29 74z" />
<glyph unicode="&#xcc;" horiz-adv-x="489" d="M-51 1694h217l190 -238h-147zM156 0v1380h178v-1380h-178z" />
<glyph unicode="&#xcd;" horiz-adv-x="489" d="M137 1454l191 240h217l-260 -240h-148zM156 0v1380h178v-1380h-178z" />
<glyph unicode="&#xce;" horiz-adv-x="489" d="M-35 1454l211 234h137l213 -234h-149l-131 141h-4l-131 -141h-146zM156 0v1380h178v-1380h-178z" />
<glyph unicode="&#xcf;" horiz-adv-x="489" d="M-43 1581q0 43 29 72q29 31 71 30q43 0 72 -28q27 -31 27 -74q0 -45 -27 -74q-29 -31 -72 -30h-2q-43 0 -71 30q-27 29 -27 74zM156 0v1380h178v-1380h-178zM336 1581q0 43 29 72q31 31 73 30q43 0 72 -28q27 -31 27 -74q0 -104 -101 -104h-2q-43 0 -69 30q-29 31 -29 74 z" />
<glyph unicode="&#xd0;" horiz-adv-x="1374" d="M-4 629v143h170v594q180 31 379 31q375 0 559 -172q195 -178 194 -502q0 -340 -198 -539q-199 -199 -611 -198q-197 0 -323 14v629h-170zM344 137q59 -8 178 -8q289 0 441 154q150 152 149 438q2 252 -137 389q-145 143 -422 143q-125 0 -209 -18v-463h369v-143h-369 v-492z" />
<glyph unicode="&#xd1;" horiz-adv-x="1347" d="M156 0v1380h194l443 -698q150 -236 247 -449l4 3q-20 231 -20 567v577h168v-1380h-180l-439 700q-170 270 -258 461l-6 -2q14 -244 15 -569v-590h-168zM430 1464q-4 94 35 152q37 57 104 57q43 0 121 -41q66 -37 98 -37q47 0 56 80h94q4 -199 -137 -198q-47 0 -125 39 q-74 39 -96 38q-47 0 -54 -90h-96z" />
<glyph unicode="&#xd2;" horiz-adv-x="1411" d="M74 678q0 326 182 526q178 199 459 199q280 0 452 -195q168 -195 168 -503q0 -344 -188 -541q-176 -186 -453 -187q-274 0 -446 195q-174 195 -174 506zM264 682q0 -231 115 -389q123 -170 326 -170q205 0 327 170q115 158 115 403q0 225 -109 383q-123 178 -331 178 q-211 0 -332 -174q-111 -160 -111 -401zM408 1700h217l190 -238h-147z" />
<glyph unicode="&#xd3;" horiz-adv-x="1411" d="M74 678q0 326 182 526q178 199 459 199q280 0 452 -195q168 -195 168 -503q0 -344 -188 -541q-176 -186 -453 -187q-274 0 -446 195q-174 195 -174 506zM264 682q0 -231 115 -389q123 -170 326 -170q205 0 327 170q115 158 115 403q0 225 -109 383q-123 178 -331 178 q-211 0 -332 -174q-111 -160 -111 -401zM596 1460l190 240h218l-261 -240h-147z" />
<glyph unicode="&#xd4;" horiz-adv-x="1411" d="M74 678q0 326 182 526q178 199 459 199q280 0 452 -195q168 -195 168 -503q0 -344 -188 -541q-176 -186 -453 -187q-274 0 -446 195q-174 195 -174 506zM264 682q0 -231 115 -389q123 -170 326 -170q205 0 327 170q115 158 115 403q0 225 -109 383q-123 178 -331 178 q-211 0 -332 -174q-111 -160 -111 -401zM424 1460l211 234h137l213 -234h-149l-131 142h-5l-131 -142h-145z" />
<glyph unicode="&#xd5;" horiz-adv-x="1411" d="M74 678q0 326 182 526q178 199 459 199q280 0 452 -195q168 -195 168 -503q0 -344 -188 -541q-176 -186 -453 -187q-274 0 -446 195q-174 195 -174 506zM264 682q0 -231 115 -389q123 -170 326 -170q205 0 327 170q115 158 115 403q0 225 -109 383q-123 178 -331 178 q-211 0 -332 -174q-111 -160 -111 -401zM451 1468q-4 94 34 152q37 57 105 57q43 0 121 -41q66 -37 98 -37q47 0 55 80h94q4 -199 -137 -198q-47 0 -125 39q-74 39 -96 39q-47 0 -53 -91h-96z" />
<glyph unicode="&#xd6;" horiz-adv-x="1411" d="M74 678q0 326 182 526q178 199 459 199q280 0 452 -195q168 -195 168 -503q0 -344 -188 -541q-176 -186 -453 -187q-274 0 -446 195q-174 195 -174 506zM264 682q0 -231 115 -389q123 -170 326 -170q205 0 327 170q115 158 115 403q0 225 -109 383q-123 178 -331 178 q-211 0 -332 -174q-111 -160 -111 -401zM416 1581q0 43 28 72q29 31 72 30q43 0 72 -28q27 -31 26 -74q0 -45 -26 -74q-29 -31 -72 -30h-2q-43 0 -72 30q-27 29 -26 74zM795 1581q0 43 28 72q31 31 74 30q43 0 72 -28q27 -31 26 -74q0 -104 -100 -104h-2q-43 0 -70 30 q-29 31 -28 74z" />
<glyph unicode="&#xd7;" horiz-adv-x="1220" d="M82 90l438 449l-438 448l90 90l438 -448l439 448l90 -90l-441 -448l441 -449l-90 -90l-439 449l-438 -449z" />
<glyph unicode="&#xd8;" horiz-adv-x="1411" d="M74 682q0 322 184 524q178 197 453 197q195 0 344 -109l121 166l108 -74l-127 -176q178 -195 178 -508q0 -344 -190 -542q-172 -182 -436 -183q-199 0 -351 111l-129 -176l-100 80l127 180q-182 195 -182 510zM256 692q0 -193 102 -370l609 841q-113 96 -258 97 q-213 0 -340 -177q-113 -158 -113 -391zM446 219q104 -98 259 -98q209 0 331 172q117 160 117 403q0 201 -96 359h-6z" />
<glyph unicode="&#xd9;" horiz-adv-x="1325" d="M154 567v813h180v-817q0 -221 92 -336q84 -104 229 -104q336 0 336 440v817h180v-805q0 -303 -149 -458q-135 -139 -373 -140q-496 0 -495 590zM375 1694h217l190 -238h-147z" />
<glyph unicode="&#xda;" horiz-adv-x="1325" d="M154 567v813h180v-817q0 -221 92 -336q84 -104 229 -104q336 0 336 440v817h180v-805q0 -303 -149 -458q-135 -139 -373 -140q-496 0 -495 590zM561 1454l191 240h217l-260 -240h-148z" />
<glyph unicode="&#xdb;" horiz-adv-x="1325" d="M154 567v813h180v-817q0 -221 92 -336q84 -104 229 -104q336 0 336 440v817h180v-805q0 -303 -149 -458q-135 -139 -373 -140q-496 0 -495 590zM395 1454l211 234h137l213 -234h-149l-131 141h-4l-131 -141h-146z" />
<glyph unicode="&#xdc;" horiz-adv-x="1325" d="M154 567v813h180v-817q0 -221 92 -336q84 -104 229 -104q336 0 336 440v817h180v-805q0 -303 -149 -458q-135 -139 -373 -140q-496 0 -495 590zM379 1581q0 43 29 72q29 31 71 30q43 0 72 -28q27 -31 27 -74q0 -45 -27 -74q-29 -31 -72 -30h-2q-43 0 -71 30 q-27 29 -27 74zM758 1581q0 43 28 72q31 31 74 30q43 0 72 -28q27 -31 26 -74q0 -104 -100 -104h-2q-43 0 -70 30q-29 31 -28 74z" />
<glyph unicode="&#xdd;" horiz-adv-x="1107" d="M27 1380h202l195 -381q82 -160 137 -284h4q33 76 140 284l198 381h203l-463 -792v-588h-180v586zM465 1444l190 239h217l-260 -239h-147z" />
<glyph unicode="&#xde;" horiz-adv-x="1087" d="M156 0v1380h176v-270q88 16 196 16q236 0 365 -112q113 -106 113 -269q0 -211 -148 -327q-137 -109 -371 -109q-84 0 -155 10v-319h-176zM332 465q72 -12 153 -12q164 0 254 73q88 74 88 201q0 258 -315 258q-115 0 -180 -16v-504z" />
<glyph unicode="&#xdf;" horiz-adv-x="1122" d="M150 0v926q0 313 145 446q117 104 301 105q154 0 256 -91q109 -94 109 -256q0 -100 -48 -167q-147 -61 -147 -166q0 -70 104 -179q166 -166 166 -315q0 -145 -98 -235q-100 -90 -268 -91q-133 0 -217 43l32 138q82 -41 172 -41q94 0 150 51q51 47 51 121q0 111 -110 211 q-160 152 -160 272q0 162 182 252q18 45 18 88q0 104 -59 164q-57 59 -154 59q-246 0 -245 -401v-934h-180z" />
<glyph unicode="&#xe0;" horiz-adv-x="987" d="M72 262q0 180 153 275q156 96 443 94v20q0 229 -226 230q-143 0 -258 -74l-41 119q135 88 326 88q377 0 377 -406v-370q0 -147 16 -238h-164l-14 125h-6q-104 -147 -303 -148q-143 0 -228 89q-76 80 -75 196zM195 1419h198l178 -293h-127zM252 283q0 -84 51 -129 q45 -43 119 -43q182 0 240 165q10 31 10 58v172q-420 8 -420 -223z" />
<glyph unicode="&#xe1;" horiz-adv-x="987" d="M72 262q0 180 153 275q156 96 443 94v20q0 229 -226 230q-143 0 -258 -74l-41 119q135 88 326 88q377 0 377 -406v-370q0 -147 16 -238h-164l-14 125h-6q-104 -147 -303 -148q-143 0 -228 89q-76 80 -75 196zM252 283q0 -84 51 -129q45 -43 119 -43q182 0 240 165 q10 31 10 58v172q-420 8 -420 -223zM383 1126l180 293h199l-250 -293h-129z" />
<glyph unicode="&#xe2;" horiz-adv-x="987" d="M72 262q0 180 153 275q156 96 443 94v20q0 229 -226 230q-143 0 -258 -74l-41 119q135 88 326 88q377 0 377 -406v-370q0 -147 16 -238h-164l-14 125h-6q-104 -147 -303 -148q-143 0 -228 89q-76 80 -75 196zM229 1126l193 293h125l196 -293h-139l-119 195h-4l-119 -195 h-133zM252 283q0 -84 51 -129q45 -43 119 -43q182 0 240 165q10 31 10 58v172q-420 8 -420 -223z" />
<glyph unicode="&#xe3;" horiz-adv-x="987" d="M72 262q0 180 153 275q156 96 443 94v20q0 229 -226 230q-143 0 -258 -74l-41 119q135 88 326 88q377 0 377 -406v-370q0 -147 16 -238h-164l-14 125h-6q-104 -147 -303 -148q-143 0 -228 89q-76 80 -75 196zM236 1161q-2 98 34 156q37 57 105 57q47 0 127 -45 q61 -35 86 -35q51 0 57 88h96q4 -207 -141 -206q-47 0 -125 41q-61 37 -88 36q-47 0 -53 -92h-98zM252 283q0 -84 51 -129q45 -43 119 -43q182 0 240 165q10 31 10 58v172q-420 8 -420 -223z" />
<glyph unicode="&#xe4;" horiz-adv-x="987" d="M72 262q0 180 153 275q156 96 443 94v20q0 229 -226 230q-143 0 -258 -74l-41 119q135 88 326 88q377 0 377 -406v-370q0 -147 16 -238h-164l-14 125h-6q-104 -147 -303 -148q-143 0 -228 89q-76 80 -75 196zM201 1272q0 43 30 74q31 31 74 30q43 0 72 -30q29 -29 29 -74 q0 -43 -29 -74t-72 -31h-2q-43 0 -74 31q-29 31 -28 74zM252 283q0 -84 51 -129q45 -43 119 -43q182 0 240 165q10 31 10 58v172q-420 8 -420 -223zM582 1272q0 43 30 74q29 31 72 30q43 0 72 -30q29 -29 28 -74q0 -43 -28 -74q-29 -31 -72 -31h-2q-43 0 -72 31t-28 74z" />
<glyph unicode="&#xe5;" horiz-adv-x="987" d="M72 262q0 180 153 275q156 96 443 94v20q0 229 -226 230q-143 0 -258 -74l-41 119q135 88 326 88q377 0 377 -406v-370q0 -147 16 -238h-164l-14 125h-6q-104 -147 -303 -148q-143 0 -228 89q-76 80 -75 196zM252 283q0 -84 51 -129q45 -43 119 -43q182 0 240 165 q10 31 10 58v172q-420 8 -420 -223zM285 1286q0 84 55 137q59 57 154 58q90 0 147 -56q55 -55 55 -137t-59 -135q-57 -53 -145 -53q-91 0 -150 53q-57 53 -57 133zM389 1286q0 -43 29 -76q29 -35 71 -34q47 -1 78 34q29 33 29 80t-29 80q-31 33 -78 33q-100 0 -100 -117z " />
<glyph unicode="&#xe6;" horiz-adv-x="1583" d="M74 260q0 172 155 266q156 94 443 92v41q0 68 -41 129q-61 92 -191 93q-143 0 -254 -76l-43 119q143 90 310 90q252 0 319 -209h4q109 209 346 209q203 0 308 -166q80 -129 79 -291q0 -51 -6 -80h-663q-4 -172 86 -268q84 -92 229 -92q152 0 270 57l33 -127 q-129 -70 -325 -70q-287 0 -377 220h-4q-102 -219 -369 -220q-147 0 -231 89q-78 78 -78 194zM252 274q0 -76 51 -120q47 -43 121 -43q186 0 240 170q10 29 10 71v146q-422 8 -422 -224zM838 606h497q6 96 -45 176q-63 102 -186 103q-121 0 -197 -97q-63 -82 -69 -182z" />
<glyph unicode="&#xe7;" horiz-adv-x="915" d="M78 485q0 231 145 377q147 150 387 150q147 0 250 -51l-41 -140q-82 47 -209 47q-164 0 -260 -110q-90 -102 -90 -264q0 -168 98 -271q96 -100 246 -100q115 0 221 49l33 -135q-104 -55 -260 -57l-51 -82q143 -29 143 -150q0 -170 -213 -170q-84 0 -143 35l31 92 q45 -27 112 -27q88 0 88 64q-2 70 -159 86l86 158q-188 23 -302 157q-113 137 -112 342z" />
<glyph unicode="&#xe8;" horiz-adv-x="1026" d="M78 479q0 229 125 379q129 156 340 156q217 0 325 -166q84 -125 84 -301q0 -29 -6 -84h-696q2 -172 104 -264q90 -80 236 -80q154 0 274 51l31 -129q-141 -63 -330 -64q-225 0 -358 140q-129 135 -129 362zM252 592h526q2 111 -47 190q-68 102 -203 103q-125 0 -200 -101 q-63 -80 -76 -192zM276 1419h199l178 -293h-127z" />
<glyph unicode="&#xe9;" horiz-adv-x="1026" d="M78 479q0 229 125 379q129 156 340 156q217 0 325 -166q84 -125 84 -301q0 -29 -6 -84h-696q2 -172 104 -264q90 -80 236 -80q154 0 274 51l31 -129q-141 -63 -330 -64q-225 0 -358 140q-129 135 -129 362zM252 592h526q2 111 -47 190q-68 102 -203 103q-125 0 -200 -101 q-63 -80 -76 -192zM442 1126l181 293h198l-250 -293h-129z" />
<glyph unicode="&#xea;" horiz-adv-x="1026" d="M78 479q0 229 125 379q129 156 340 156q217 0 325 -166q84 -125 84 -301q0 -29 -6 -84h-696q2 -172 104 -264q90 -80 236 -80q154 0 274 51l31 -129q-141 -63 -330 -64q-225 0 -358 140q-129 135 -129 362zM252 592h526q2 111 -47 190q-68 102 -203 103q-125 0 -200 -101 q-63 -80 -76 -192zM283 1126l192 293h125l197 -293h-140l-118 195h-4l-119 -195h-133z" />
<glyph unicode="&#xeb;" horiz-adv-x="1026" d="M78 479q0 229 125 379q129 156 340 156q217 0 325 -166q84 -125 84 -301q0 -29 -6 -84h-696q2 -172 104 -264q90 -80 236 -80q154 0 274 51l31 -129q-141 -63 -330 -64q-225 0 -358 140q-129 135 -129 362zM252 592h526q2 111 -47 190q-68 102 -203 103q-125 0 -200 -101 q-63 -80 -76 -192zM256 1272q0 43 31 74t73 30q43 0 72 -30q29 -29 29 -74q0 -43 -29 -74t-72 -31h-2q-43 0 -73 31q-29 31 -29 74zM637 1272q0 43 31 74q29 31 71 30q43 0 72 -30q29 -29 29 -74q0 -43 -29 -74t-72 -31h-2q-43 0 -71 31q-29 31 -29 74z" />
<glyph unicode="&#xec;" horiz-adv-x="479" d="M-55 1419h198l179 -293h-127zM150 0v991h180v-991h-180z" />
<glyph unicode="&#xed;" horiz-adv-x="479" d="M137 1126l180 293h199l-250 -293h-129zM150 0v991h180v-991h-180z" />
<glyph unicode="&#xee;" horiz-adv-x="479" d="M-16 1126l192 293h125l197 -293h-140l-118 195h-4l-119 -195h-133zM150 0v991h180v-991h-180z" />
<glyph unicode="&#xef;" horiz-adv-x="479" d="M-53 1272q0 43 30 74q31 31 74 30q43 0 72 -30q29 -29 29 -74q0 -43 -29 -74t-72 -31h-2q-43 0 -74 31q-29 31 -28 74zM150 0v991h180v-991h-180zM328 1272q0 43 30 74q29 31 72 30q43 0 72 -30q29 -29 28 -74q0 -43 -28 -74q-29 -31 -72 -31h-2q-43 0 -72 31t-28 74z " />
<glyph unicode="&#xf0;" horiz-adv-x="1107" d="M78 483q0 229 139 373q131 133 318 135q139 0 231 -88l4 6q-92 154 -242 265l-290 -136l-39 88l237 113q-78 57 -213 123l78 113q162 -74 289 -166l262 125l43 -91l-217 -102q174 -141 262 -326q86 -178 86 -397q2 -266 -149 -414q-131 -127 -330 -127q-205 0 -336 138 q-133 139 -133 368zM260 485q0 -158 82 -264q82 -109 205 -108h2q133 0 213 108q80 106 80 277q0 188 -70 274q-84 96 -217 96q-145 0 -227 -129q-68 -109 -68 -254z" />
<glyph unicode="&#xf1;" horiz-adv-x="1136" d="M141 991h160l10 -164h4q96 186 328 187q133 0 227 -84q123 -111 123 -338v-592h-180v571q0 293 -229 293q-86 0 -154 -55q-63 -51 -88 -129q-12 -33 -12 -84v-596h-180v723q0 160 -9 268zM317 1161q-2 98 35 156q37 57 105 57q47 0 127 -45q61 -35 86 -35q51 0 57 88h96 q4 -207 -141 -206q-47 0 -125 41q-61 37 -88 36q-47 0 -53 -92h-99z" />
<glyph unicode="&#xf2;" horiz-adv-x="1124" d="M78 487q0 242 143 387q135 139 348 140q213 -1 346 -142q131 -141 132 -368q0 -256 -158 -402q-135 -125 -336 -125q-205 0 -338 138q-137 141 -137 372zM260 494q0 -164 84 -273q86 -109 217 -108q129 0 215 108q86 111 86 277q0 147 -67 254q-82 127 -230 127 q-149 0 -231 -121q-74 -106 -74 -264zM297 1419h199l178 -293h-127z" />
<glyph unicode="&#xf3;" horiz-adv-x="1124" d="M78 487q0 242 143 387q135 139 348 140q213 -1 346 -142q131 -141 132 -368q0 -256 -158 -402q-135 -125 -336 -125q-205 0 -338 138q-137 141 -137 372zM260 494q0 -164 84 -273q86 -109 217 -108q129 0 215 108q86 111 86 277q0 147 -67 254q-82 127 -230 127 q-149 0 -231 -121q-74 -106 -74 -264zM453 1126l180 293h198l-249 -293h-129z" />
<glyph unicode="&#xf4;" horiz-adv-x="1124" d="M78 487q0 242 143 387q135 139 348 140q213 -1 346 -142q131 -141 132 -368q0 -256 -158 -402q-135 -125 -336 -125q-205 0 -338 138q-137 141 -137 372zM260 494q0 -164 84 -273q86 -109 217 -108q129 0 215 108q86 111 86 277q0 147 -67 254q-82 127 -230 127 q-149 0 -231 -121q-74 -106 -74 -264zM305 1126l193 293h125l196 -293h-139l-119 195h-4l-119 -195h-133z" />
<glyph unicode="&#xf5;" horiz-adv-x="1124" d="M78 487q0 242 143 387q135 139 348 140q213 -1 346 -142q131 -141 132 -368q0 -256 -158 -402q-135 -125 -336 -125q-205 0 -338 138q-137 141 -137 372zM260 494q0 -164 84 -273q86 -109 217 -108q129 0 215 108q86 111 86 277q0 147 -67 254q-82 127 -230 127 q-149 0 -231 -121q-74 -106 -74 -264zM309 1161q-2 98 35 156q37 57 105 57q47 0 126 -45q61 -35 87 -35q51 0 57 88h96q4 -207 -141 -206q-47 0 -125 41q-61 37 -88 36q-47 0 -53 -92h-99z" />
<glyph unicode="&#xf6;" horiz-adv-x="1124" d="M78 487q0 242 143 387q135 139 348 140q213 -1 346 -142q131 -141 132 -368q0 -256 -158 -402q-135 -125 -336 -125q-205 0 -338 138q-137 141 -137 372zM260 494q0 -164 84 -273q86 -109 217 -108q129 0 215 108q86 111 86 277q0 147 -67 254q-82 127 -230 127 q-149 0 -231 -121q-74 -106 -74 -264zM268 1272q0 43 31 74t74 30q43 0 71 -30q29 -29 29 -74q0 -43 -29 -74t-71 -31h-2q-43 0 -74 31q-29 31 -29 74zM649 1272q0 43 31 74q29 31 72 30q43 0 71 -30q29 -29 29 -74q0 -43 -29 -74t-71 -31h-2q-43 0 -72 31t-29 74z" />
<glyph unicode="&#xf7;" horiz-adv-x="1220" d="M82 485v123h1057v-123h-1057zM502 186q0 115 110 115q106 0 107 -115q0 -113 -109 -112h-2q-47 0 -78 32q-29 31 -28 80zM502 905q0 115 110 115q106 0 107 -115q0 -113 -109 -112h-2q-47 0 -78 32q-29 31 -28 80z" />
<glyph unicode="&#xf8;" horiz-adv-x="1124" d="M78 489q0 240 143 385q135 139 344 140h2q135 0 250 -70l86 121l80 -55l-86 -127q150 -143 150 -379q0 -254 -156 -400q-135 -127 -328 -127q-147 0 -254 70l-88 -125l-76 62l86 122q-154 143 -153 383zM252 494q0 -145 74 -248l4 -2l405 575q-72 59 -174 60 q-154 0 -237 -125q-72 -106 -72 -260zM391 170q66 -57 166 -57q139 0 227 108q86 109 86 277q0 139 -69 241h-4z" />
<glyph unicode="&#xf9;" horiz-adv-x="1128" d="M143 412v579h181v-549q0 -315 221 -315q170 0 237 164q16 43 17 92v608h180v-721q0 -166 8 -270h-160l-10 162h-4q-109 -184 -328 -185q-141 0 -229 86q-113 111 -113 349zM287 1419h198l179 -293h-127z" />
<glyph unicode="&#xfa;" horiz-adv-x="1128" d="M143 412v579h181v-549q0 -315 221 -315q170 0 237 164q16 43 17 92v608h180v-721q0 -166 8 -270h-160l-10 162h-4q-109 -184 -328 -185q-141 0 -229 86q-113 111 -113 349zM477 1126l180 293h199l-250 -293h-129z" />
<glyph unicode="&#xfb;" horiz-adv-x="1128" d="M143 412v579h181v-549q0 -315 221 -315q170 0 237 164q16 43 17 92v608h180v-721q0 -166 8 -270h-160l-10 162h-4q-109 -184 -328 -185q-141 0 -229 86q-113 111 -113 349zM307 1126l193 293h125l196 -293h-139l-119 195h-4l-119 -195h-133z" />
<glyph unicode="&#xfc;" horiz-adv-x="1128" d="M143 412v579h181v-549q0 -315 221 -315q170 0 237 164q16 43 17 92v608h180v-721q0 -166 8 -270h-160l-10 162h-4q-109 -184 -328 -185q-141 0 -229 86q-113 111 -113 349zM276 1272q0 43 31 74t74 30q43 0 72 -30q29 -29 28 -74q0 -43 -28 -74q-29 -31 -72 -31h-2 q-43 0 -74 31q-29 31 -29 74zM657 1272q0 43 31 74q29 31 72 30q43 0 71 -30q29 -29 29 -74q0 -43 -29 -74t-71 -31h-2q-43 0 -72 31t-29 74z" />
<glyph unicode="&#xfd;" horiz-adv-x="964" d="M18 991h197l217 -585q39 -111 64 -203h4q72 229 63 207l197 581h190l-270 -706q-184 -485 -340 -621q-109 -96 -221 -117l-45 152q86 27 157 88q96 76 152 201q14 33 14 43q0 14 -12 47zM403 1126l181 293h198l-250 -293h-129z" />
<glyph unicode="&#xfe;" horiz-adv-x="1165" d="M150 -406v1776h178v-536h4q113 180 338 180q178 2 297 -137q121 -141 120 -369q0 -256 -141 -402q-125 -129 -309 -129q-205 0 -305 156h-4v-539h-178zM328 391q0 -45 20 -90q63 -182 262 -182q135 0 215 104q82 104 82 283q0 154 -78 256q-82 109 -215 108 q-197 0 -266 -196q-20 -57 -20 -101v-182z" />
<glyph unicode="&#xff;" horiz-adv-x="964" d="M18 991h197l217 -585q39 -111 64 -203h4q72 229 63 207l197 581h190l-270 -706q-184 -485 -340 -621q-109 -96 -221 -117l-45 152q86 27 157 88q96 76 152 201q14 33 14 43q0 14 -12 47zM213 1272q0 43 31 74t73 30q43 0 72 -30q29 -29 29 -74q0 -43 -29 -74t-72 -31h-2 q-43 0 -73 31q-29 31 -29 74zM594 1272q0 43 31 74q29 31 71 30q43 0 72 -30q29 -29 29 -74q0 -43 -29 -74t-72 -31h-2q-43 0 -71 31q-29 31 -29 74z" />
<glyph unicode="&#x152;" horiz-adv-x="1830" d="M74 680q0 336 190 532q186 190 490 191q53 0 180 -10q102 -12 131 -13h659v-149h-567v-436h535v-150h-535v-495h598v-150h-706q-37 0 -136 -12q-127 -10 -170 -11q-311 0 -495 203q-174 193 -174 500zM264 688q-2 -256 133 -407q139 -158 379 -158q127 0 201 27v1077 q-88 31 -217 30q-229 0 -365 -157q-133 -156 -131 -412z" />
<glyph unicode="&#x153;" horiz-adv-x="1767" d="M78 489q0 236 137 383q133 141 338 142q279 0 375 -238h4q111 238 360 238q213 0 320 -166q82 -127 82 -299q0 -55 -6 -84h-674q2 -164 94 -258q90 -88 235 -88q135 0 267 55l32 -129q-119 -68 -321 -68q-279 0 -391 234h-6q-109 -233 -383 -234q-201 0 -330 140 q-133 141 -133 372zM260 494q0 -162 84 -271q82 -111 211 -110q131 0 211 106t80 277q0 158 -68 262q-80 121 -223 121h-2q-147 0 -227 -129q-66 -106 -66 -256zM1014 594h506q2 109 -47 186q-63 102 -195 103q-121 0 -195 -99q-61 -80 -69 -190z" />
<glyph unicode="&#x178;" horiz-adv-x="1107" d="M27 1380h202l195 -381q82 -160 137 -284h4q33 76 140 284l198 381h203l-463 -792v-588h-180v586zM283 1567q0 43 28 71q29 31 72 31t72 -29q27 -31 26 -73q0 -45 -26 -74q-29 -31 -72 -31h-2q-43 0 -72 31q-27 29 -26 74zM662 1567q0 43 28 71q31 31 74 31t72 -29 q27 -31 26 -73q0 -104 -100 -105h-2q-43 0 -70 31q-29 31 -28 74z" />
<glyph unicode="&#x2c6;" horiz-adv-x="614" d="M51 1126l193 293h125l196 -293h-139l-119 195h-4l-119 -195h-133z" />
<glyph unicode="&#x2dc;" horiz-adv-x="614" d="M57 1161q-2 98 37 156q37 57 103 57q49 0 127 -45q63 -35 86 -35q53 0 57 88h96q4 -207 -141 -206q-45 0 -125 41q-61 37 -88 36q-45 0 -53 -92h-99z" />
<glyph unicode="&#x2000;" horiz-adv-x="900" />
<glyph unicode="&#x2001;" horiz-adv-x="1800" />
<glyph unicode="&#x2002;" horiz-adv-x="900" />
<glyph unicode="&#x2003;" horiz-adv-x="1800" />
<glyph unicode="&#x2004;" horiz-adv-x="600" />
<glyph unicode="&#x2005;" horiz-adv-x="450" />
<glyph unicode="&#x2006;" horiz-adv-x="300" />
<glyph unicode="&#x2007;" horiz-adv-x="300" />
<glyph unicode="&#x2008;" horiz-adv-x="225" />
<glyph unicode="&#x2009;" horiz-adv-x="360" />
<glyph unicode="&#x200a;" horiz-adv-x="100" />
<glyph unicode="&#x2010;" horiz-adv-x="628" d="M61 487v134h506v-134h-506z" />
<glyph unicode="&#x2011;" horiz-adv-x="628" d="M61 487v134h506v-134h-506z" />
<glyph unicode="&#x2012;" horiz-adv-x="628" d="M61 487v134h506v-134h-506z" />
<glyph unicode="&#x2013;" horiz-adv-x="1024" d="M61 459v123h902v-123h-902z" />
<glyph unicode="&#x2014;" horiz-adv-x="2048" d="M61 459v123h1926v-123h-1926z" />
<glyph unicode="&#x2018;" horiz-adv-x="423" d="M72 918q84 305 190 487l115 12q-82 -227 -121 -479z" />
<glyph unicode="&#x2019;" horiz-adv-x="423" d="M70 920q80 209 120 477l187 20q-86 -311 -193 -485z" />
<glyph unicode="&#x201a;" horiz-adv-x="423" d="M43 -242q84 238 119 480l186 20q-84 -307 -192 -485z" />
<glyph unicode="&#x201c;" horiz-adv-x="724" d="M70 918q86 311 192 487l115 12q-80 -211 -121 -479zM375 918q78 295 190 487l115 12q-80 -211 -121 -479z" />
<glyph unicode="&#x201d;" horiz-adv-x="724" d="M70 920q82 227 120 477l185 20q-84 -305 -191 -485zM373 920q80 209 121 477l184 20q-84 -305 -191 -485z" />
<glyph unicode="&#x201e;" horiz-adv-x="729" d="M41 -242q80 213 121 480l184 20q-76 -291 -190 -485zM344 -242q80 213 121 480l186 20q-84 -307 -192 -485z" />
<glyph unicode="&#x2022;" horiz-adv-x="577" d="M76 535q-2 90 61 153t154 64q88 0 151 -64q63 -61 64 -151q0 -90 -64 -154q-61 -61 -151 -61h-2q-88 0 -152 61q-61 61 -61 152z" />
<glyph unicode="&#x2026;" horiz-adv-x="2048" d="M223 106q0 57 33 93q35 37 88 37q121 0 121 -130q0 -55 -33 -92q-35 -37 -88 -37h-2q-53 0 -86 37q-35 37 -33 92zM905 106q0 57 35 93q33 37 88 37q117 0 121 -130q0 -55 -35 -92t-88 -37h-2q-53 0 -86 37q-35 37 -33 92zM1587 106q0 57 35 93q33 37 88 37q53 0 86 -37 q35 -35 35 -93q0 -57 -33 -92q-35 -37 -90 -37h-2q-53 0 -86 37t-33 92z" />
<glyph unicode="&#x202f;" horiz-adv-x="360" />
<glyph unicode="&#x2039;" horiz-adv-x="522" d="M59 516l271 377h145l-274 -377l274 -377h-145z" />
<glyph unicode="&#x203a;" horiz-adv-x="522" d="M47 139l275 377l-275 377h143l275 -377l-272 -377h-146z" />
<glyph unicode="&#x205f;" horiz-adv-x="450" />
<glyph unicode="&#x20ac;" d="M20 512v100h117v31q0 35 4 92h-121v103h136q37 211 168 346q164 170 405 170q150 0 272 -66l-40 -135q-102 57 -230 57q-164 0 -270 -112q-90 -88 -123 -260h571v-103h-590q-4 -53 -4 -86v-37h594v-100h-579q23 -170 112 -268q113 -119 289 -119q131 0 250 68l35 -130 q-127 -86 -305 -86q-258 0 -416 183q-121 133 -148 352h-127z" />
<glyph unicode="&#x2122;" horiz-adv-x="1267" d="M61 1288v92h467v-92h-178v-465h-110v465h-179zM561 823l41 557h166l96 -272q12 -43 37 -141h2q41 143 39 139l96 274h160l43 -557h-111l-20 328q-2 23 -2 72l-2 84h-6l-23 -82q-14 -55 -24 -84l-101 -310h-114l-101 318l-39 158h-6q0 -53 -4 -156l-20 -328h-107z" />
<glyph unicode="&#xe000;" horiz-adv-x="993" d="M0 0v993h993v-993h-993z" />
</font>
</defs>
</svg>
