<?xml version="1.0" standalone="no"?>
<!DOCTYPE svg PUBLIC "-//W3C//DTD SVG 1.1//EN" "http://www.w3.org/Graphics/SVG/1.1/DTD/svg11.dtd" >
<svg xmlns="http://www.w3.org/2000/svg">
<metadata></metadata>
<defs>
<font id="myriad_prolight" horiz-adv-x="999" >
<font-face units-per-em="2048" ascent="1536" descent="-512" />
<missing-glyph horiz-adv-x="448" />
<glyph unicode="&#xfb01;" horiz-adv-x="991" d="M31 903v80h141v64q0 197 92 309q98 121 285 121q143 0 225 -68l-45 -76q-80 61 -199 62q-260 0 -260 -355v-57h555v-983h-98v903h-457v-903h-98v903h-141z" />
<glyph unicode="&#xfb02;" horiz-adv-x="991" d="M31 903v80h141v43q0 233 133 358q102 92 279 93q139 0 241 -54v-1423h-98v1364q-57 31 -166 31q-291 0 -291 -355v-57h262v-80h-262v-903h-98v903h-141z" />
<glyph unicode="&#xfb03;" horiz-adv-x="1562" d="M31 903v80h141v47q0 217 113 338q88 88 225 88q90 0 174 -49l-37 -78q-74 45 -145 45q-98 0 -152 -63q-80 -86 -80 -287v-41h473v64q0 197 93 309q98 121 286 121q143 0 226 -68l-45 -76q-80 61 -199 62q-262 0 -262 -355v-57h557v-983h-99v903h-458v-903h-99v903h-473 v-903h-98v903h-141z" />
<glyph unicode="&#xfb04;" horiz-adv-x="1562" d="M31 903v80h141v29q0 240 111 356q88 88 229 88q92 0 172 -43l-39 -78q-66 39 -141 39q-96 0 -154 -63q-80 -86 -80 -285v-43h473v43q0 233 134 358q104 92 278 93q141 0 244 -54v-1423h-99v1364q-57 31 -165 31q-293 0 -293 -355v-57h262v-80h-262v-903h-99v903h-473 v-903h-98v903h-141z" />
<glyph horiz-adv-x="2048" />
<glyph horiz-adv-x="2048" />
<glyph unicode="&#xd;" horiz-adv-x="2048" />
<glyph unicode=" "  horiz-adv-x="448" />
<glyph unicode="&#x09;" horiz-adv-x="448" />
<glyph unicode="&#xa0;" horiz-adv-x="448" />
<glyph unicode="!" horiz-adv-x="423" d="M133 68q0 92 82 92t82 -92q0 -90 -82 -91h-2q-35 0 -59 27q-23 27 -21 64zM152 1380h120l-20 -1018h-80z" />
<glyph unicode="&#x22;" horiz-adv-x="616" d="M123 1417h117l-25 -452h-65zM375 1417h117l-25 -452h-66z" />
<glyph unicode="#" horiz-adv-x="952" d="M76 422v80h180l43 338h-180v80h190l53 411h84l-53 -411h232l53 411h82l-51 -411h170v-80h-181l-43 -338h183v-80h-193l-53 -422h-84l53 422h-229l-53 -422h-86l53 422h-170zM342 502h229l41 338h-229z" />
<glyph unicode="$" d="M147 131l43 76q109 -88 263 -88q123 0 198 71q76 68 76 175q0 176 -240 282q-319 139 -319 344q0 121 80 207q78 84 205 102v213h84v-210q143 -6 245 -76l-43 -76q-98 72 -235 72q-121 0 -187 -70q-57 -61 -57 -145q0 -92 62 -152q53 -53 196 -117q303 -139 303 -366 q0 -121 -76 -211q-82 -98 -223 -121v-213h-84v211q-174 0 -291 92z" />
<glyph unicode="%" horiz-adv-x="1509" d="M66 938q0 203 90 315q82 100 200 101h2q123 0 197 -97q78 -106 78 -301q0 -203 -84 -315q-78 -102 -203 -102q-117 0 -192 96q-86 106 -88 303zM154 946q-4 -145 49 -239q53 -98 145 -99q197 0 197 342q0 334 -195 334h-2q-90 0 -143 -98q-51 -94 -51 -240zM315 -27 l795 1385h80l-795 -1385h-80zM877 387q0 201 90 315q82 100 200 101h2q123 0 197 -96q78 -106 78 -301q0 -203 -84 -316q-78 -102 -203 -102q-117 0 -192 96q-86 106 -88 303zM965 395q-4 -145 49 -239q55 -98 145 -99q197 0 197 342q0 334 -195 334h-2q-90 0 -143 -98 q-51 -94 -51 -240z" />
<glyph unicode="&#x26;" horiz-adv-x="1146" d="M63 362q0 248 273 408v6q-119 160 -119 301q0 131 80 226q88 100 231 100q113 0 189 -76t76 -199q0 -217 -322 -376v-7q94 -111 401 -460q96 145 144 442h92q-57 -346 -180 -500q55 -55 219 -227h-123l-152 156q-186 -178 -419 -179q-168 0 -279 113q-111 111 -111 272z M162 375q0 -139 88 -228q88 -90 225 -90h2q203 0 340 158q-35 41 -180 205q-160 176 -256 289q-219 -131 -219 -334zM309 1085q0 -125 113 -278q279 147 278 311q0 84 -43 139q-51 66 -143 66h-2q-96 0 -152 -72q-51 -66 -51 -166z" />
<glyph unicode="'" horiz-adv-x="364" d="M123 1417h117l-25 -452h-65z" />
<glyph unicode="(" horiz-adv-x="542" d="M137 584q0 475 289 843h92q-287 -356 -287 -845q0 -461 287 -834h-92q-289 360 -289 836z" />
<glyph unicode=")" horiz-adv-x="542" d="M25 -252q287 369 286 842q0 469 -286 837h92q289 -360 289 -839q0 -471 -289 -840h-92z" />
<glyph unicode="*" horiz-adv-x="800" d="M61 1026v96l289 -22v4l-176 246l90 51l133 -266h4l129 268l91 -51l-181 -250v-4l299 24v-96l-297 25v-4l181 -244l-95 -53l-129 270h-4l-141 -272l-80 55l178 246v4z" />
<glyph unicode="+" horiz-adv-x="1220" d="M84 506v82h483v502h88v-502h484v-82h-484v-506h-88v506h-483z" />
<glyph unicode="," horiz-adv-x="356" d="M53 -258q70 184 107 434l129 21q-70 -291 -158 -445z" />
<glyph unicode="-" horiz-adv-x="610" d="M61 520v86h488v-86h-488z" />
<glyph unicode="." horiz-adv-x="356" d="M113 70q0 92 84 92q82 0 82 -92t-84 -93h-2q-35 0 -60 29q-23 27 -20 64z" />
<glyph unicode="/" horiz-adv-x="718" d="M-23 -82l652 1485h100l-657 -1485h-95z" />
<glyph unicode="0" d="M78 659q0 340 135 529q119 166 301 166q184 0 291 -162q117 -176 117 -508q0 -348 -119 -532q-113 -174 -316 -175h-2q-170 0 -280 162q-123 182 -127 520zM180 674q-4 -276 82 -447q88 -168 234 -168h2q160 0 243 172q78 160 78 443q0 598 -319 598q-143 0 -232 -166 q-88 -166 -88 -432z" />
<glyph unicode="1" d="M238 1182l251 149h91v-1331h-97v1231h-4l-217 -127z" />
<glyph unicode="2" d="M94 0v59l123 127q301 293 406 441q127 178 127 340q0 301 -289 301q-150 0 -283 -115l-39 68q147 133 340 133q188 0 289 -125q82 -100 82 -242q0 -182 -137 -377q-102 -145 -387 -426l-95 -98v-4h656v-82h-793z" />
<glyph unicode="3" d="M92 68l39 77q113 -84 287 -84q182 0 270 109q68 84 66 199q-2 156 -123 239q-104 74 -269 74h-83v82h88q127 0 223 65q111 76 110 203q0 102 -57 166q-70 72 -201 72q-137 0 -258 -92l-39 71q129 104 310 105q176 0 268 -99q80 -84 80 -211q0 -219 -248 -315v-4 q131 -27 213 -117q88 -96 88 -235q0 -162 -111 -273q-123 -123 -339 -123q-193 0 -314 91z" />
<glyph unicode="4" d="M20 391v66l650 874h80v-858h202v-82h-202v-391h-95v391h-635zM137 473h518v539q0 96 7 184l-7 2q-43 -80 -104 -168l-414 -553v-4z" />
<glyph unicode="5" d="M86 63l39 78q117 -80 274 -80q145 0 246 97q100 98 98 248q-2 152 -94 241q-100 96 -291 96q-109 0 -190 -14l86 602h577v-86h-501l-66 -428q51 10 123 10q133 0 248 -57q207 -102 207 -346q0 -197 -131 -324q-129 -123 -318 -123q-193 0 -307 86z" />
<glyph unicode="6" d="M76 537q0 377 217 604q150 156 373 196q66 16 133 17v-90q-78 0 -144 -15q-207 -43 -336 -207q-121 -154 -141 -360h4q117 186 344 186q180 0 291 -120q106 -119 107 -308q0 -186 -107 -317q-117 -145 -309 -146q-188 0 -305 144q-127 152 -127 416zM174 514 q0 -205 88 -328q90 -127 252 -127h2q135 0 221 103q84 102 84 270q0 170 -90 264q-86 88 -229 88q-205 0 -305 -192q-23 -41 -23 -78z" />
<glyph unicode="7" d="M127 1249v82h778v-69l-600 -1262h-96l594 1245v4h-676z" />
<glyph unicode="8" d="M82 332q0 252 278 370v9q-225 96 -225 301q0 150 109 245q106 96 268 97h2q162 0 260 -97q94 -90 94 -223q0 -213 -235 -319v-8q283 -111 282 -353q0 -164 -124 -272q-123 -104 -293 -105q-178 0 -297 101q-119 102 -119 254zM184 352q-6 -123 78 -205q88 -88 234 -88h2 q143 0 231 80q86 78 86 201q0 133 -90 215q-78 70 -252 119q-289 -84 -289 -322zM231 1026q-2 -211 293 -285q244 84 244 285q0 102 -59 170q-72 78 -203 78h-2q-127 0 -203 -74q-70 -70 -70 -174z" />
<glyph unicode="9" d="M96 885q0 190 117 327q121 141 309 142q178 0 287 -142q115 -152 115 -413q0 -403 -228 -631q-131 -137 -311 -172q-109 -23 -180 -19v91q55 -6 151 10q168 25 289 155q145 156 180 422l-6 -2q-133 -172 -344 -172q-176 0 -282 123q-96 115 -97 281zM195 891 q0 -147 84 -236q82 -90 215 -90q215 0 315 172q18 37 18 60q0 217 -79 342q-84 133 -242 133h-2q-135 0 -223 -109q-86 -106 -86 -272z" />
<glyph unicode=":" horiz-adv-x="356" d="M113 70q0 92 84 92q82 0 82 -92t-84 -93h-2q-35 0 -60 29q-23 27 -20 64zM113 831q0 92 84 93q82 0 82 -93q0 -92 -84 -92h-2q-35 0 -60 29q-23 27 -20 63z" />
<glyph unicode=";" horiz-adv-x="356" d="M53 -256q70 184 107 434l127 21q-66 -285 -156 -445zM129 831q0 92 84 93q82 0 82 -93q0 -92 -84 -92h-2q-35 0 -57 29q-25 27 -23 63z" />
<glyph unicode="&#x3c;" horiz-adv-x="1220" d="M145 508v72l930 507v-94l-835 -448v-4l835 -447v-94z" />
<glyph unicode="=" horiz-adv-x="1220" d="M82 317v82h1057v-82h-1057zM82 707v81h1057v-81h-1057z" />
<glyph unicode="&#x3e;" horiz-adv-x="1220" d="M145 0v94l836 447v4l-836 448v94l930 -507v-72z" />
<glyph unicode="?" horiz-adv-x="780" d="M106 1323q104 82 265 82q150 0 235 -90q74 -80 74 -201q0 -150 -176 -362q-137 -168 -123 -332l4 -62h-90l-8 54q-27 180 131 374q158 184 157 322q0 209 -223 209q-129 0 -207 -66zM254 70q0 92 84 92q82 0 82 -92t-84 -93h-2q-35 0 -58 29q-25 27 -22 64z" />
<glyph unicode="@" horiz-adv-x="1468" d="M78 424q0 328 201 555q209 236 536 235q262 0 422 -167q158 -166 158 -424q0 -223 -109 -361q-100 -127 -239 -127q-61 0 -101 45q-47 53 -37 148h-6q-117 -193 -307 -193q-88 0 -150 68q-66 70 -65 182q0 197 139 344q145 150 348 150q113 0 205 -39l-74 -367 q-53 -256 68 -260q90 -4 162 104q74 115 74 287q0 242 -132 387q-135 147 -370 148q-266 0 -445 -193q-186 -199 -186 -516q0 -252 152 -410q147 -156 376 -155q184 0 318 78l28 -70q-150 -88 -356 -88q-258 0 -430 172q-180 180 -180 467zM471 383q0 -172 158 -172 q100 0 192 111q84 98 105 206l51 254q-45 20 -125 21q-156 0 -268 -125q-113 -125 -113 -295z" />
<glyph unicode="A" horiz-adv-x="1198" d="M61 0l500 1380h94l498 -1380h-100l-174 483h-547l-170 -483h-101zM362 565h486l-168 461q-33 98 -72 244h-4q-23 -92 -72 -240z" />
<glyph unicode="B" horiz-adv-x="1034" d="M166 0v1360q129 31 278 31q248 0 361 -115q86 -82 86 -225q0 -104 -68 -189q-66 -82 -170 -119v-6q111 -25 191 -102q102 -98 102 -250q0 -156 -102 -264q-131 -131 -438 -131q-63 0 -138 4zM264 82q51 -10 170 -10q410 0 410 311q0 154 -121 238q-108 73 -280 73h-5 h-174v-612zM264 774h201q147 0 237 78q88 76 89 192q0 264 -353 265q-121 0 -174 -15v-520z" />
<glyph unicode="C" horiz-adv-x="1167" d="M262 1196q193 205 514 205q201 0 320 -60l-31 -81q-119 59 -287 59q-281 0 -440 -170q-160 -172 -160 -469q0 -285 154 -449q156 -168 430 -168q180 0 311 64l29 -78q-137 -69 -366 -69h-7q-274 0 -453 167q-200 187 -200 532q0 316 186 517z" />
<glyph unicode="D" horiz-adv-x="1325" d="M166 0v1360q178 31 354 31q379 0 557 -189q172 -178 172 -479q0 -324 -180 -522q-190 -211 -596 -211q-182 0 -307 10zM264 82q70 -10 223 -10q326 0 498 174q164 168 164 473v14q0 264 -150 412q-164 164 -485 164q-141 0 -250 -23v-1204z" />
<glyph unicode="E" horiz-adv-x="954" d="M166 0v1380h682v-82h-584v-530h551v-82h-551v-604h617v-82h-715z" />
<glyph unicode="F" horiz-adv-x="946" d="M166 0v1380h682v-82h-584v-548h537v-82h-537v-668h-98z" />
<glyph unicode="G" horiz-adv-x="1277" d="M76 686q0 301 184 498q199 211 537 211q199 0 321 -62l-33 -80q-123 59 -294 60q-283 0 -449 -170q-164 -170 -164 -453q0 -291 160 -457q157 -165 429 -165h3q201 0 289 49v487h-320v80h418v-625q-176 -73 -397 -73h-6q-301 0 -488 180q-190 184 -190 520z" />
<glyph unicode="H" horiz-adv-x="1290" d="M166 0v1380h98v-608h762v608h98v-1380h-98v690h-762v-690h-98z" />
<glyph unicode="I" horiz-adv-x="432" d="M166 0v1380h98v-1380h-98z" />
<glyph unicode="J" horiz-adv-x="706" d="M14 10l21 78q66 -27 145 -27q141 0 205 78q72 90 72 310v931h98v-954q0 -449 -373 -449q-98 0 -168 33z" />
<glyph unicode="K" horiz-adv-x="1019" d="M166 0v1380h98v-698h6q37 47 119 143l490 555h118l-524 -585l574 -795h-117l-524 727l-142 -156v-571h-98z" />
<glyph unicode="L" horiz-adv-x="917" d="M166 0v1380h98v-1298h615v-82h-713z" />
<glyph unicode="M" horiz-adv-x="1593" d="M129 0l100 1380h113l297 -796q94 -250 152 -447h6q37 133 153 447l310 796h116l92 -1380h-96l-41 653q-28 467 -28 604v9h-5q-100 -295 -186 -516l-291 -750h-67l-273 733q-135 375 -178 533h-4q-8 -311 -31 -631l-43 -635h-96z" />
<glyph unicode="N" horiz-adv-x="1306" d="M168 0v1380h92l537 -815q176 -270 260 -434l4 2q-16 213 -17 559v688h95v-1380h-90l-527 803q-197 301 -268 446l-4 -2q12 -205 12 -549v-698h-94z" />
<glyph unicode="O" horiz-adv-x="1374" d="M76 676q0 332 180 532q174 195 440 195q264 0 432 -189q170 -195 170 -509q0 -346 -188 -547q-172 -180 -428 -181h-2q-260 0 -430 189q-174 195 -174 510zM178 680q0 -250 131 -426q143 -195 375 -195h2q236 0 379 191q131 180 131 448q0 244 -123 420 q-141 203 -383 203q-248 0 -387 -201q-125 -176 -125 -440z" />
<glyph unicode="P" horiz-adv-x="1028" d="M166 0v1364q147 27 297 27q244 0 364 -117q106 -100 107 -270q0 -170 -96 -277q-135 -154 -406 -154q-113 0 -168 17v-590h-98zM264 676q59 -20 176 -21q188 0 291 86q104 88 105 252q0 158 -107 240q-98 76 -270 76q-121 0 -195 -17v-616z" />
<glyph unicode="Q" horiz-adv-x="1374" d="M76 674q0 336 180 536q172 193 442 193q262 0 430 -189q170 -195 170 -509q0 -555 -436 -693v-8q340 -76 451 -94l-31 -90q-223 51 -518 139q-63 18 -78 18q-264 6 -432 187q-178 190 -178 510zM178 676q0 -248 131 -424q143 -193 373 -193h2q238 0 379 191 q133 180 133 448q0 244 -123 420q-139 203 -379 203q-250 0 -391 -203q-125 -178 -125 -442z" />
<glyph unicode="R" horiz-adv-x="1034" d="M166 0v1362q133 29 299 29q254 0 373 -115q96 -92 96 -246q0 -266 -270 -360v-4q162 -51 213 -293q66 -303 102 -373h-100q-27 49 -88 336q-33 152 -103 219q-74 72 -209 78h-215v-633h-98zM264 713h219q160 0 256 82t97 219q0 297 -373 297q-121 0 -199 -19v-579z" />
<glyph unicode="S" horiz-adv-x="950" d="M86 72l37 80q131 -90 301 -91q154 0 244 80q90 78 90 207q0 215 -281 322q-354 127 -354 381q0 152 113 252q113 98 288 98q176 0 275 -64l-37 -84q-90 66 -244 66q-152 0 -233 -86q-66 -70 -66 -166q0 -111 70 -180q63 -68 217 -127q180 -74 260 -158q88 -96 88 -244 q0 -160 -109 -264q-118 -114 -325 -114h-4q-205 0 -330 92z" />
<glyph unicode="T" horiz-adv-x="952" d="M-23 1298v82h1000v-82h-451v-1298h-98v1298h-451z" />
<glyph unicode="U" horiz-adv-x="1282" d="M166 541v839h98v-833q0 -250 107 -375q96 -113 260 -113q180 0 280 117q106 125 107 371v833h98v-825q0 -299 -147 -449q-127 -129 -342 -129q-203 0 -322 123q-139 143 -139 441z" />
<glyph unicode="V" horiz-adv-x="1042" d="M0 1380h102l244 -739q125 -381 162 -528h6q47 176 176 528l268 739h105l-512 -1380h-92z" />
<glyph unicode="W" horiz-adv-x="1679" d="M31 1380h100l201 -778q92 -367 114 -473h5q25 137 127 473l225 778h94l205 -772q90 -334 112 -479h5q20 104 124 475l228 776h100l-414 -1380h-94l-207 795q-84 307 -106 467h-4q-27 -152 -123 -465l-236 -797h-92z" />
<glyph unicode="X" horiz-adv-x="1118" d="M61 0l439 698l-420 682h110l224 -368q88 -139 141 -238h4q25 47 146 238l231 368h115l-441 -671l445 -709h-113l-209 340q-115 172 -182 287h-4q-86 -152 -174 -289l-199 -338h-113z" />
<glyph unicode="Y" horiz-adv-x="1030" d="M31 1380h108l228 -411q106 -195 157 -297h4q25 57 160 299l236 409h108l-465 -784v-596h-98v598z" />
<glyph unicode="Z" horiz-adv-x="1103" d="M70 0v63l831 1229v6h-764v82h889v-65l-833 -1227v-6h843v-82h-966z" />
<glyph unicode="[" horiz-adv-x="542" d="M184 -229v1634h351v-76h-261v-1483h261v-75h-351z" />
<glyph unicode="\" horiz-adv-x="712" d="M-10 1403h98l647 -1485h-98z" />
<glyph unicode="]" horiz-adv-x="542" d="M12 -154h258v1483h-258v76h348v-1634h-348v75z" />
<glyph unicode="^" horiz-adv-x="1220" d="M147 401l420 930h88l420 -930h-94l-367 836h-4l-368 -836h-95z" />
<glyph unicode="_" horiz-adv-x="1024" d="M0 -154h1024v-102h-1024v102z" />
<glyph unicode="`" horiz-adv-x="614" d="M68 1409h143l182 -283h-76z" />
<glyph unicode="a" horiz-adv-x="929" d="M80 248q0 174 149 266q153 94 439 94h12v27q0 289 -249 289h-3q-145 0 -248 -74l-30 72q127 84 288 84q340 0 340 -388v-385q0 -145 15 -233h-91l-14 141h-4q-106 -164 -315 -164q-139 0 -219 86q-70 76 -70 185zM182 264q0 -100 60 -155q53 -49 137 -50q223 0 291 197 q10 27 10 59v211q-24 1 -47 1q-451 0 -451 -263z" />
<glyph unicode="b" horiz-adv-x="1130" d="M156 0q8 92 8 229v1227h98v-657h4q106 207 361 207q186 0 303 -142q117 -141 117 -362q0 -248 -140 -393q-123 -131 -299 -132q-236 0 -352 199h-4l-8 -176h-88zM262 379q0 -39 8 -72q33 -113 121 -180q88 -68 203 -68q166 0 262 125q92 119 92 316q0 178 -90 297 q-96 127 -256 127q-111 0 -201 -70q-92 -72 -127 -192q-12 -49 -12 -87v-196z" />
<glyph unicode="c" horiz-adv-x="913" d="M84 481q0 233 143 379q141 145 363 146q172 0 258 -62l-35 -80q-94 57 -231 58q-190 0 -299 -129q-100 -119 -101 -304q0 -193 109 -309q109 -117 280 -117q121 0 246 58l27 -78q-133 -63 -289 -63q-211 0 -342 141q-129 137 -129 360z" />
<glyph unicode="d" horiz-adv-x="1114" d="M86 473v7q0 235 129 382q125 143 313 144q233 0 322 -175h4v625h98v-1229q0 -135 9 -227h-89l-8 186h-4q-98 -209 -350 -209q-184 0 -303 138q-121 139 -121 358zM184 483q0 -178 84 -295q94 -129 260 -129q109 0 195 68q90 70 121 188q10 31 10 82v197q0 55 -10 90 q-27 102 -109 170q-86 70 -200 70q-160 0 -256 -125q-94 -123 -95 -316z" />
<glyph unicode="e" horiz-adv-x="993" d="M84 473q0 242 127 389q121 143 315 144q211 0 312 -170q71 -117 71 -271q0 -45 -4 -63h-725q0 -221 111 -336q100 -102 264 -103q158 0 272 56l25 -76q-115 -63 -309 -63q-209 0 -336 139q-123 135 -123 354zM186 580h621v9q0 125 -57 214q-76 121 -236 121 q-147 0 -238 -115q-74 -94 -90 -229z" />
<glyph unicode="f" horiz-adv-x="536" d="M31 903v80h141v53q0 246 109 355q88 86 219 86q90 0 147 -35l-31 -74q-53 27 -124 27q-221 0 -222 -357v-55h262v-80h-262v-903h-98v903h-141z" />
<glyph unicode="g" horiz-adv-x="1114" d="M84 483q0 242 139 389q127 133 303 134q238 0 332 -189h4l6 166h90q-8 -98 -8 -254v-586q0 -326 -135 -454q-123 -117 -334 -117q-199 0 -313 86l35 78q127 -82 293 -82q356 0 356 397v139h-4q-96 -190 -342 -190q-184 0 -303 141q-119 137 -119 342zM182 494 q0 -176 88 -289q94 -123 260 -123q223 0 306 221q16 53 16 105v196q0 61 -12 96q-78 223 -305 224q-158 0 -254 -117q-98 -119 -99 -313z" />
<glyph unicode="h" horiz-adv-x="1097" d="M166 0v1456h98v-649h4q45 88 133 141q94 57 199 58q117 0 205 -70q137 -106 137 -344v-592h-98v582q0 338 -271 338q-100 0 -184 -66q-80 -61 -113 -156q-12 -37 -12 -98v-600h-98z" />
<glyph unicode="i" horiz-adv-x="428" d="M135 1264q0 35 23 59q25 27 57 27q78 0 78 -86q0 -84 -80 -84h-2q-76 0 -76 84zM166 0v983h98v-983h-98z" />
<glyph unicode="j" horiz-adv-x="438" d="M-100 -348q139 6 204 82q74 88 74 399v850h98v-915q0 -274 -104 -390q-94 -100 -258 -106zM147 1264q0 35 23 59q25 27 59 27q76 0 76 -86q0 -84 -80 -84h-2q-76 0 -76 84z" />
<glyph unicode="k" horiz-adv-x="866" d="M164 0v1456h98v-946h4q43 55 94 108l349 365h118l-397 -408l453 -575h-119l-402 516l-100 -106v-410h-98z" />
<glyph unicode="l" horiz-adv-x="434" d="M166 0v1456h98v-1456h-98z" />
<glyph unicode="m" horiz-adv-x="1677" d="M158 983h92l6 -172h4q111 195 320 195t282 -213h4q37 80 101 133q98 80 233 80q113 0 197 -74q125 -109 125 -352v-580h-99v571q0 352 -256 353q-184 0 -258 -195q-16 -57 -16 -98v-631h-98v616q0 137 -62 220q-66 88 -182 88q-94 0 -172 -68q-72 -61 -100 -154 q-14 -49 -15 -96v-606h-98v748q0 131 -8 235z" />
<glyph unicode="n" horiz-adv-x="1097" d="M158 983h92l6 -176h4q96 199 338 199q119 0 207 -70q137 -106 137 -346v-590h-98v582q0 342 -273 342q-102 0 -184 -66q-82 -63 -111 -162q-12 -45 -12 -86v-610h-98v748q0 131 -8 235z" />
<glyph unicode="o" horiz-adv-x="1089" d="M84 483q0 242 141 387q131 135 324 136q205 0 330 -140q127 -141 127 -366q0 -254 -154 -398q-131 -125 -315 -125h-2q-195 0 -320 138q-131 141 -131 368zM182 489q0 -184 103 -307q102 -123 254 -123h2q156 0 260 123q106 125 106 314q0 160 -82 282q-100 145 -278 146 q-176 0 -277 -138q-88 -121 -88 -297z" />
<glyph unicode="p" horiz-adv-x="1130" d="M156 983h94l6 -186h4q117 209 365 209q188 0 305 -142q117 -139 117 -356q0 -252 -134 -397q-125 -133 -313 -134q-229 0 -334 183h-4v-566h-98v1076q0 188 -8 313zM262 387q0 -45 8 -78q31 -113 121 -182q88 -68 203 -68q166 0 262 125q92 119 92 320q0 174 -90 293 q-96 127 -256 127q-111 0 -201 -70q-94 -72 -125 -190q-14 -61 -14 -84v-193z" />
<glyph unicode="q" horiz-adv-x="1110" d="M84 473q0 262 149 408q125 125 304 125q231 0 321 -191h4l6 168h90q-8 -98 -8 -254v-1135h-98v576h-4q-96 -193 -340 -193q-182 0 -303 140q-121 139 -121 356zM182 485q0 -180 82 -295q92 -131 262 -131q229 0 308 230q18 51 18 96v211q0 55 -10 88q-27 102 -107 168 q-86 72 -200 72q-160 0 -256 -123q-96 -121 -97 -316z" />
<glyph unicode="r" horiz-adv-x="604" d="M156 983h90l4 -199h6q76 221 279 222q16 0 40 -5v-92q-14 2 -47 2q-98 0 -170 -77q-68 -76 -88 -197q-8 -39 -8 -94v-543h-98v688q0 166 -8 295z" />
<glyph unicode="s" horiz-adv-x="763" d="M90 47l35 82q111 -68 221 -68q113 0 174 56q55 49 55 131q0 139 -206 223q-250 94 -250 268q0 113 80 187q86 80 223 80q131 0 217 -62l-37 -80q-84 59 -196 60q-90 0 -142 -52q-49 -47 -49 -118q0 -72 51 -119q41 -37 152 -82q254 -100 254 -293q0 -127 -90 -203 q-91 -77 -238 -77h-4q-141 0 -250 67z" />
<glyph unicode="t" horiz-adv-x="632" d="M37 903v80h166v180l98 37v-217h281v-80h-281v-639q0 -203 143 -203q70 0 113 15l12 -74q-57 -22 -131 -22h-6q-113 0 -168 67q-61 70 -61 236v620h-166z" />
<glyph unicode="u" horiz-adv-x="1087" d="M158 412v571h98v-553q0 -367 260 -367q205 0 291 199q18 55 18 109v612h99v-743q0 -139 8 -240h-92l-6 176h-5q-106 -199 -335 -199q-129 0 -215 78q-121 111 -121 357z" />
<glyph unicode="v" horiz-adv-x="925" d="M31 983h104l230 -610q61 -152 96 -262h4q10 33 100 262l234 610h102l-399 -983h-86z" />
<glyph unicode="w" horiz-adv-x="1478" d="M47 983h100l166 -559q63 -225 84 -307h4q29 109 99 307l196 559h92l189 -553q59 -176 96 -313h4q25 106 90 309l174 557h101l-328 -983h-84l-186 549q-74 211 -103 334h-4q-33 -133 -106 -338l-195 -545h-86z" />
<glyph unicode="x" horiz-adv-x="878" d="M23 0l360 502l-340 481h111l168 -240q49 -66 112 -168h4q27 43 115 168l168 240h108l-342 -479l355 -504h-113l-174 248l-123 184h-4q-29 -47 -123 -184l-172 -248h-110z" />
<glyph unicode="y" horiz-adv-x="901" d="M23 983h104l258 -643q39 -102 72 -211h4l76 217l239 637h105l-295 -733q-182 -471 -332 -600q-84 -70 -172 -103l-31 82q92 35 172 109q102 102 164 248q12 31 12 43t-12 43z" />
<glyph unicode="z" horiz-adv-x="825" d="M33 0v59l530 699q74 94 113 141v4h-600v80h719l-2 -65l-635 -834v-4h639v-80h-764z" />
<glyph unicode="{" horiz-adv-x="542" d="M53 553l2 72q172 -4 172 161q0 74 -18 177q-20 119 -21 178q0 264 289 264h25v-76h-37q-186 -2 -186 -196q0 -68 18 -164q18 -125 18 -164q0 -172 -131 -213v-4q131 -39 131 -213q0 -43 -18 -164q-18 -100 -18 -168q0 -195 186 -197h37v-75h-25q-289 0 -289 280 q0 61 21 172q18 102 18 170q0 164 -174 160z" />
<glyph unicode="|" horiz-adv-x="434" d="M172 -512v2048h88v-2048h-88z" />
<glyph unicode="}" horiz-adv-x="542" d="M41 -154h37q186 2 186 197q0 68 -18 168q-18 121 -19 164q0 174 131 213v4q-131 41 -131 213q0 39 19 164q18 96 18 164q0 195 -186 196h-37v76h25q289 0 288 -264q0 -45 -18 -178q-20 -96 -21 -177q0 -166 174 -161l-2 -72q-172 4 -172 -160q0 -74 21 -170 q18 -125 18 -172q0 -281 -288 -280h-25v75z" />
<glyph unicode="~" horiz-adv-x="1220" d="M113 453q-8 119 57 194q63 72 162 72q88 0 293 -90q203 -90 290 -90q131 0 129 178h76q6 -135 -61 -205q-57 -61 -152 -61q-100 0 -301 88q-211 92 -278 92q-137 0 -138 -178h-77z" />
<glyph unicode="&#xa1;" horiz-adv-x="423" d="M133 901q0 92 82 92h2q80 0 80 -92q0 -90 -82 -90q-37 0 -61 27q-23 27 -21 63zM154 -406l20 1012h80l20 -1012h-120z" />
<glyph unicode="&#xa2;" d="M127 666q0 205 115 342q111 135 290 159v213h84v-211q143 0 240 -59l-35 -80q-92 59 -233 60q-164 0 -269 -127q-98 -119 -98 -293q0 -186 101 -299q98 -111 253 -111q137 0 252 59l27 -71q-86 -59 -238 -68v-213h-84v213q-176 16 -288 135q-117 123 -117 351z" />
<glyph unicode="&#xa3;" d="M121 0v61q236 131 235 394q0 98 -12 182h-217v80h207q-27 176 -27 254q0 174 101 280q96 102 247 103q135 0 213 -51l-32 -76q-70 45 -191 45q-244 0 -244 -295q0 -123 27 -260h301v-80h-291q16 -199 -2 -283q-37 -158 -166 -266v-4h650v-84h-799z" />
<glyph unicode="&#xa4;" d="M72 289l133 133q-78 96 -78 246q0 152 84 260l-139 133l63 65l129 -141q94 88 234 88h2q147 0 231 -88l141 141l62 -63l-148 -135q74 -102 74 -244q0 -160 -72 -254l140 -141l-62 -64l-135 144q-90 -90 -237 -90q-145 0 -232 81l-131 -135zM219 672q0 -154 92 -240 q78 -74 181 -74q111 -2 186 72q90 86 90 252q0 123 -68 211q-76 100 -206 100h-2q-125 0 -201 -96q-72 -92 -72 -225z" />
<glyph unicode="&#xa5;" d="M53 1331h105l254 -479q55 -111 80 -164h6q20 55 80 170l268 473h102l-377 -645h279v-74h-318v-159h318v-74h-318v-379h-94v379h-315v74h315v159h-315v74h280z" />
<glyph unicode="&#xa6;" horiz-adv-x="434" d="M172 356h88v-716h-88v716zM172 664v716h88v-716h-88z" />
<glyph unicode="&#xa7;" horiz-adv-x="1009" d="M139 727q0 127 137 234q-72 53 -71 161q0 123 98 199q94 76 236 76q152 0 258 -70l-41 -74q-94 70 -230 70q-94 0 -161 -49q-70 -53 -70 -135q0 -90 82 -144q47 -33 196 -86q299 -102 299 -301q0 -141 -120 -246q72 -72 71 -176q0 -137 -104 -219q-96 -76 -246 -76 q-184 0 -285 82l43 74q94 -80 248 -80q111 0 180 53q74 55 74 152q0 86 -55 139q-57 55 -215 111q-168 63 -238 123q-86 72 -86 182zM227 729q0 -129 240 -215q160 -59 229 -106q86 74 86 188q0 145 -207 219q-174 59 -243 105q-104 -78 -105 -189v-2z" />
<glyph unicode="&#xa8;" horiz-adv-x="614" d="M57 1264q0 31 23 55q25 25 55 24q76 0 76 -79q0 -80 -76 -80h-4q-74 0 -74 80zM403 1264q0 31 23 55q25 25 55 24q76 0 76 -79q0 -80 -76 -80h-4q-74 0 -74 80z" />
<glyph unicode="&#xa9;" horiz-adv-x="1386" d="M80 696q0 262 178 447q178 184 438 184h2q256 0 435 -184q174 -184 174 -447q0 -266 -177 -448q-176 -186 -434 -187q-260 0 -438 187q-178 182 -178 448zM162 688q0 -238 153 -399q152 -162 381 -162q223 -2 377 162q152 164 152 407q0 240 -152 404q-154 162 -377 162 h-2q-227 0 -379 -164q-154 -164 -153 -410zM358 684q0 168 117 277q111 104 270 104q158 0 226 -53l-21 -64q-86 49 -202 49q-152 0 -232 -90q-74 -82 -74 -217q0 -133 76 -217q84 -92 234 -92q129 0 211 55l20 -59q-92 -63 -252 -64q-172 0 -274 109q-98 102 -99 262z" />
<glyph unicode="&#xaa;" horiz-adv-x="667" d="M70 727q0 109 104 170q111 68 309 59v25q0 51 -28 92q-43 63 -140 64q-102 0 -168 -56l-26 62q88 68 211 67q236 0 235 -288v-220q0 -90 11 -157h-78l-11 96h-4q-76 -106 -209 -106q-98 0 -155 57q-51 51 -51 135zM158 729q0 -57 41 -92q39 -31 94 -31q102 0 164 84 q27 37 26 60v137q-326 10 -325 -158z" />
<glyph unicode="&#xab;" horiz-adv-x="802" d="M61 516l291 369h103l-291 -369l293 -369h-103zM358 516l293 369h101l-291 -369l293 -369h-103z" />
<glyph unicode="&#xac;" horiz-adv-x="1220" d="M82 707v81h1057v-522h-88v441h-969z" />
<glyph unicode="&#xad;" horiz-adv-x="610" d="M61 520v86h488v-86h-488z" />
<glyph unicode="&#xae;" horiz-adv-x="808" d="M72 1071q0 137 96 232q98 94 238 94h2q137 0 233 -94q94 -94 94 -232q0 -139 -94 -235q-96 -94 -235 -95q-139 0 -238 95q-96 96 -96 235zM143 1071q0 -115 76 -192q76 -78 189 -78q109 -2 182 78q74 78 74 190q0 113 -74 191q-74 80 -184 79h-3q-111 0 -184 -77 q-76 -80 -76 -191zM283 891v342q57 10 118 10q74 0 107 -26q35 -25 35 -74q0 -57 -66 -80v-4q41 -16 55 -84q12 -63 27 -84h-65q-12 14 -29 88q-12 55 -78 55h-41v-143h-63zM346 1083h43q88 0 88 54q0 57 -82 57q-29 0 -49 -4v-107z" />
<glyph unicode="&#xaf;" horiz-adv-x="614" d="M94 1206v82h430v-82h-430z" />
<glyph unicode="&#xb0;" horiz-adv-x="602" d="M61 1147q0 111 72 184q72 74 176 74h2q113 0 181 -76q63 -70 63 -170q0 -113 -78 -186q-74 -70 -172 -70q-106 0 -176 74q-68 70 -68 170zM139 1147q0 -74 47 -125q49 -51 121 -51q74 0 123 53q47 53 47 131q0 68 -37 119q-45 63 -133 63h-2q-80 0 -125 -61 q-41 -55 -41 -129z" />
<glyph unicode="&#xb1;" horiz-adv-x="1220" d="M84 0v82h1055v-82h-1055zM84 655v82h483v424h88v-424h484v-82h-484v-440h-88v440h-483z" />
<glyph unicode="&#xb2;" horiz-adv-x="585" d="M23 907v51l131 125q268 252 268 394q0 168 -176 168q-82 0 -170 -68l-31 55q88 84 221 84q127 0 193 -76q53 -61 53 -143q0 -176 -295 -444l-72 -68v-4h379v-74h-501z" />
<glyph unicode="&#xb3;" horiz-adv-x="571" d="M16 952l31 68q74 -53 184 -53q102 0 158 57q45 45 43 109q-2 86 -76 131q-66 39 -163 39h-54v65h56q74 0 131 37q72 43 73 121q0 121 -143 121q-92 0 -166 -58l-29 64q90 63 203 63q115 0 174 -59q49 -49 49 -127q0 -131 -151 -189v-4q82 -12 133 -69q51 -55 51 -133 q0 -96 -71 -162q-82 -76 -222 -76q-131 0 -211 55z" />
<glyph unicode="&#xb4;" horiz-adv-x="614" d="M240 1126l182 283h143l-250 -283h-75z" />
<glyph unicode="&#xb5;" horiz-adv-x="1093" d="M164 -39v1022h98v-602q0 -137 60 -219q70 -98 206 -99q199 0 285 199q18 55 18 109v612h99v-743q0 -96 18 -136q23 -43 80 -47l-12 -77l-31 -3q-137 0 -147 187h-4q-109 -184 -308 -184q-197 0 -264 139v-146q0 -285 23 -379h-90q-31 94 -31 367z" />
<glyph unicode="&#xb6;" horiz-adv-x="1009" d="M74 932q-2 188 110 305q139 143 428 143q127 0 207 -14v-1470h-84v1404h-145v-1404h-84v645h-17q-158 0 -276 98q-137 111 -139 293z" />
<glyph unicode="&#xb7;" horiz-adv-x="356" d="M96 543q0 92 84 92q82 0 82 -92q0 -90 -84 -90h-2q-35 0 -59 26q-23 27 -21 64z" />
<glyph unicode="&#xb8;" horiz-adv-x="614" d="M123 -373l24 70q47 -27 111 -27q98 0 96 72q-2 78 -159 92l102 168h76l-74 -113q139 -18 139 -137q0 -158 -192 -158q-66 0 -123 33z" />
<glyph unicode="&#xb9;" horiz-adv-x="430" d="M47 1622l168 84h76v-799h-84v717h-4l-137 -70z" />
<glyph unicode="&#xba;" horiz-adv-x="690" d="M31 866q0 156 100 254q90 90 215 90h2q141 0 227 -94t87 -242q-2 -166 -105 -258q-88 -82 -213 -81q-135 0 -223 90q-90 94 -90 241zM117 870q0 -115 71 -190q66 -74 156 -74q98 0 164 72q66 76 65 194q0 100 -53 177q-63 90 -176 90h-2q-106 0 -170 -86 q-55 -78 -55 -183z" />
<glyph unicode="&#xbb;" horiz-adv-x="802" d="M47 885h103l292 -369l-292 -369h-101l291 369zM344 885h102l293 -369l-293 -369h-100l291 369z" />
<glyph unicode="&#xbc;" horiz-adv-x="1464" d="M98 1260l168 83h76v-798h-84v717h-4l-137 -70zM240 -23l790 1377h82l-790 -1377h-82zM760 225v51l424 533h76v-514h133v-70h-133v-225h-84v225h-416zM864 295h312v297q0 70 6 115h-4l-66 -99z" />
<glyph unicode="&#xbd;" horiz-adv-x="1464" d="M66 1260l167 83h76v-798h-84v717h-4l-137 -70zM205 -23l790 1377h82l-790 -1377h-82zM846 0v51l131 125q268 252 268 391q0 170 -176 170q-82 0 -170 -67l-31 55q88 84 222 84q127 0 192 -76q53 -61 53 -145q0 -168 -295 -443l-71 -67v-4h379v-74h-502z" />
<glyph unicode="&#xbe;" horiz-adv-x="1464" d="M66 590l30 67q74 -53 185 -53q102 0 157 58q45 45 43 108q-2 170 -241 170h-54v66h56q74 0 131 36q72 43 73 121q0 121 -143 121q-90 0 -164 -57l-30 61q88 66 200 66q115 0 174 -60q51 -49 52 -127q0 -131 -150 -188v-4q82 -12 133 -70q51 -55 51 -133q0 -96 -71 -162 q-82 -76 -222 -75q-131 0 -210 55zM322 -23l790 1377h82l-791 -1377h-81zM784 225v51l424 533h76v-514h133v-70h-133v-225h-84v225h-416zM887 295h313v297q0 70 6 115h-4l-63 -99z" />
<glyph unicode="&#xbf;" horiz-adv-x="780" d="M131 -145q0 150 176 362q137 168 123 332l-4 63h90l8 -53q27 -182 -131 -375q-158 -188 -157 -321q0 -211 223 -211q123 0 209 65l37 -71q-109 -82 -265 -82q-150 0 -233 90q-76 80 -76 201zM389 901q0 92 84 92h2q80 0 80 -92t-84 -92q-37 0 -59 29q-25 27 -23 63z" />
<glyph unicode="&#xc0;" horiz-adv-x="1198" d="M61 0l500 1380h94l498 -1380h-100l-174 483h-547l-170 -483h-101zM340 1686h149l201 -232h-82zM362 565h486l-168 461q-33 98 -72 244h-4q-23 -92 -72 -240z" />
<glyph unicode="&#xc1;" horiz-adv-x="1198" d="M61 0l500 1380h94l498 -1380h-100l-174 483h-547l-170 -483h-101zM362 565h486l-168 461q-33 98 -72 244h-4q-23 -92 -72 -240zM526 1454l201 232h150l-269 -232h-82z" />
<glyph unicode="&#xc2;" horiz-adv-x="1198" d="M61 0l500 1380h94l498 -1380h-100l-174 483h-547l-170 -483h-101zM362 565h486l-168 461q-33 98 -72 244h-4q-23 -92 -72 -240zM362 1454l213 223h78l219 -223h-108l-148 152h-4l-147 -152h-103z" />
<glyph unicode="&#xc3;" horiz-adv-x="1198" d="M61 0l500 1380h94l498 -1380h-100l-174 483h-547l-170 -483h-101zM362 565h486l-168 461q-33 98 -72 244h-4q-23 -92 -72 -240zM373 1466q-2 74 33 123q35 53 96 53q41 0 116 -43q66 -35 103 -34q51 0 55 75h68q0 -164 -123 -163q-45 0 -121 41q-78 39 -102 38 q-47 0 -58 -90h-67z" />
<glyph unicode="&#xc4;" horiz-adv-x="1198" d="M61 0l500 1380h94l498 -1380h-100l-174 483h-547l-170 -483h-101zM356 1563q0 33 23 57q23 25 53 25q76 0 76 -82t-76 -82h-2q-74 0 -74 82zM362 565h486l-168 461q-33 98 -72 244h-4q-23 -92 -72 -240zM709 1563q0 33 22 57q23 25 53 25q76 0 76 -82t-76 -82h-2 q-74 0 -73 82z" />
<glyph unicode="&#xc5;" horiz-adv-x="1198" d="M61 0l500 1380h94l498 -1380h-100l-174 483h-547l-170 -483h-101zM362 565h486l-168 461q-33 98 -72 244h-4q-23 -92 -72 -240zM424 1599q0 74 51 125q53 51 135 52h2q80 0 131 -52q51 -51 52 -125q0 -72 -54 -120q-53 -49 -131 -49q-80 0 -133 49t-53 120zM506 1599 q0 -43 29 -75q31 -35 73 -35q45 0 76 33q29 33 29 82t-29 82q-31 33 -76 32h-2q-45 0 -74 -35q-27 -35 -26 -84z" />
<glyph unicode="&#xc6;" horiz-adv-x="1511" d="M-6 0l657 1380h748v-82h-598l63 -532h510v-82h-500l74 -602h494v-82h-578l-69 555h-437l-264 -555h-100zM397 635h389l-49 434q-20 160 -24 238h-11q-57 -135 -98 -226z" />
<glyph unicode="&#xc7;" horiz-adv-x="1183" d="M76 682q0 313 186 514q193 205 514 205q195 0 320 -60l-31 -81q-123 59 -289 59q-279 0 -438 -170q-160 -172 -160 -469q0 -285 154 -449q154 -168 428 -168q182 0 313 64l29 -78q-135 -70 -381 -69l-59 -91q141 -18 141 -143q0 -152 -191 -152q-70 0 -127 31l25 72 q49 -27 111 -27q94 0 94 72q0 76 -158 94l88 148q-246 27 -397 192q-172 186 -172 506z" />
<glyph unicode="&#xc8;" horiz-adv-x="954" d="M166 0v1380h682v-82h-584v-530h551v-82h-551v-604h617v-82h-715zM256 1686h150l200 -232h-82z" />
<glyph unicode="&#xc9;" horiz-adv-x="954" d="M166 0v1380h682v-82h-584v-530h551v-82h-551v-604h617v-82h-715zM436 1454l201 232h149l-268 -232h-82z" />
<glyph unicode="&#xca;" horiz-adv-x="954" d="M166 0v1380h682v-82h-584v-530h551v-82h-551v-604h617v-82h-715zM248 1454l213 223h78l219 -223h-109l-147 152h-4l-148 -152h-102z" />
<glyph unicode="&#xcb;" horiz-adv-x="954" d="M166 0v1380h682v-82h-584v-530h551v-82h-551v-604h617v-82h-715zM252 1569q0 33 22 57q23 25 54 25q76 0 75 -82q0 -82 -75 -82h-2q-74 0 -74 82zM604 1569q0 33 23 57q23 25 53 25q76 0 76 -82t-76 -82h-2q-74 0 -74 82z" />
<glyph unicode="&#xcc;" horiz-adv-x="432" d="M-51 1686h149l201 -232h-82zM166 0v1380h98v-1380h-98z" />
<glyph unicode="&#xcd;" horiz-adv-x="432" d="M133 1454l201 232h149l-268 -232h-82zM166 0v1380h98v-1380h-98z" />
<glyph unicode="&#xce;" horiz-adv-x="432" d="M-37 1454l213 223h78l219 -223h-108l-148 152h-4l-147 -152h-103zM166 0v1380h98v-1380h-98z" />
<glyph unicode="&#xcf;" horiz-adv-x="432" d="M-35 1569q0 33 23 57q23 25 53 25q76 0 76 -82t-76 -82h-2q-74 0 -74 82zM166 0v1380h98v-1380h-98zM317 1569q0 33 23 57q23 25 53 25q76 0 76 -82t-76 -82h-2q-74 0 -74 82z" />
<glyph unicode="&#xd0;" horiz-adv-x="1333" d="M-10 659v80h182v627q178 31 354 31q379 0 557 -189q172 -178 172 -485q0 -326 -180 -524q-190 -211 -596 -211q-186 0 -307 12v659h-182zM270 80q70 -10 224 -10q326 0 497 174q164 170 164 481q4 274 -149 426q-164 164 -486 164q-141 0 -250 -23v-553h428v-80h-428 v-579z" />
<glyph unicode="&#xd1;" horiz-adv-x="1306" d="M168 0v1380h92l537 -815q176 -270 260 -434l4 2q-16 213 -17 559v688h95v-1380h-90l-527 803q-197 301 -268 446l-4 -2q12 -205 12 -549v-698h-94zM432 1466q-2 74 33 123q35 53 96 53q41 0 117 -43q66 -35 102 -34q51 0 56 75h67q0 -164 -123 -163q-45 0 -121 41 q-78 39 -102 38q-47 0 -57 -90h-68z" />
<glyph unicode="&#xd2;" horiz-adv-x="1374" d="M76 676q0 332 180 532q174 195 440 195q264 0 432 -189q170 -195 170 -509q0 -346 -188 -547q-172 -180 -428 -181h-2q-260 0 -430 189q-174 195 -174 510zM178 680q0 -250 131 -426q143 -195 375 -195h2q236 0 379 191q131 180 131 448q0 244 -123 420 q-141 203 -383 203q-248 0 -387 -201q-125 -176 -125 -440zM424 1694h149l201 -232h-82z" />
<glyph unicode="&#xd3;" horiz-adv-x="1374" d="M76 676q0 332 180 532q174 195 440 195q264 0 432 -189q170 -195 170 -509q0 -346 -188 -547q-172 -180 -428 -181h-2q-260 0 -430 189q-174 195 -174 510zM178 680q0 -250 131 -426q143 -195 375 -195h2q236 0 379 191q131 180 131 448q0 244 -123 420 q-141 203 -383 203q-248 0 -387 -201q-125 -176 -125 -440zM602 1462l201 232h149l-268 -232h-82z" />
<glyph unicode="&#xd4;" horiz-adv-x="1374" d="M76 676q0 332 180 532q174 195 440 195q264 0 432 -189q170 -195 170 -509q0 -346 -188 -547q-172 -180 -428 -181h-2q-260 0 -430 189q-174 195 -174 510zM178 680q0 -250 131 -426q143 -195 375 -195h2q236 0 379 191q131 180 131 448q0 244 -123 420 q-141 203 -383 203q-248 0 -387 -201q-125 -176 -125 -440zM436 1462l213 224h78l219 -224h-108l-148 152h-4l-147 -152h-103z" />
<glyph unicode="&#xd5;" horiz-adv-x="1374" d="M76 676q0 332 180 532q174 195 440 195q264 0 432 -189q170 -195 170 -509q0 -346 -188 -547q-172 -180 -428 -181h-2q-260 0 -430 189q-174 195 -174 510zM178 680q0 -250 131 -426q143 -195 375 -195h2q236 0 379 191q131 180 131 448q0 244 -123 420 q-141 203 -383 203q-248 0 -387 -201q-125 -176 -125 -440zM453 1475q-2 74 32 122q35 53 97 54q41 0 116 -43q66 -35 103 -35q51 0 55 76h68q0 -164 -123 -164q-45 0 -121 41q-78 39 -102 39q-47 0 -58 -90h-67z" />
<glyph unicode="&#xd6;" horiz-adv-x="1374" d="M76 676q0 332 180 532q174 195 440 195q264 0 432 -189q170 -195 170 -509q0 -346 -188 -547q-172 -180 -428 -181h-2q-260 0 -430 189q-174 195 -174 510zM178 680q0 -250 131 -426q143 -195 375 -195h2q236 0 379 191q131 180 131 448q0 244 -123 420 q-141 203 -383 203q-248 0 -387 -201q-125 -176 -125 -440zM436 1569q0 33 23 57q23 25 53 25q76 0 76 -82t-76 -82h-2q-74 0 -74 82zM788 1569q0 33 23 57q23 25 53 25q76 0 76 -82t-76 -82h-2q-74 0 -74 82z" />
<glyph unicode="&#xd7;" horiz-adv-x="1220" d="M82 61l467 478l-467 477l61 61l467 -475l467 475l62 -61l-467 -477l467 -478l-62 -61l-467 475l-467 -475z" />
<glyph unicode="&#xd8;" horiz-adv-x="1374" d="M76 680q0 332 182 532q174 190 438 191q211 0 369 -131l125 166l65 -45l-133 -179q176 -197 176 -509q0 -350 -192 -551q-168 -176 -416 -177q-221 0 -383 138l-131 -172l-59 47l135 182q-176 197 -176 508zM178 692q0 -238 129 -442l705 946q-141 125 -322 125 q-244 0 -387 -203q-125 -178 -125 -426zM362 188q133 -129 324 -129q238 0 379 197q131 178 131 442q0 246 -129 435h-4z" />
<glyph unicode="&#xd9;" horiz-adv-x="1282" d="M166 541v839h98v-833q0 -250 107 -375q96 -113 260 -113q180 0 280 117q106 125 107 371v833h98v-825q0 -299 -147 -449q-127 -129 -342 -129q-203 0 -322 123q-139 143 -139 441zM387 1686h150l200 -232h-82z" />
<glyph unicode="&#xda;" horiz-adv-x="1282" d="M166 541v839h98v-833q0 -250 107 -375q96 -113 260 -113q180 0 280 117q106 125 107 371v833h98v-825q0 -299 -147 -449q-127 -129 -342 -129q-203 0 -322 123q-139 143 -139 441zM573 1454l201 232h150l-269 -232h-82z" />
<glyph unicode="&#xdb;" horiz-adv-x="1282" d="M166 541v839h98v-833q0 -250 107 -375q96 -113 260 -113q180 0 280 117q106 125 107 371v833h98v-825q0 -299 -147 -449q-127 -129 -342 -129q-203 0 -322 123q-139 143 -139 441zM395 1454l213 223h78l219 -223h-108l-148 152h-4l-147 -152h-103z" />
<glyph unicode="&#xdc;" horiz-adv-x="1282" d="M166 541v839h98v-833q0 -250 107 -375q96 -113 260 -113q180 0 280 117q106 125 107 371v833h98v-825q0 -299 -147 -449q-127 -129 -342 -129q-203 0 -322 123q-139 143 -139 441zM389 1569q0 33 23 57q23 25 53 25q76 0 76 -82t-76 -82h-2q-74 0 -74 82zM741 1569 q0 33 23 57q23 25 53 25q76 0 76 -82t-76 -82h-2q-74 0 -74 82z" />
<glyph unicode="&#xdd;" horiz-adv-x="1030" d="M31 1380h108l228 -411q106 -195 157 -297h4q25 57 160 299l236 409h108l-465 -784v-596h-98v598zM457 1438l200 231h150l-268 -231h-82z" />
<glyph unicode="&#xde;" horiz-adv-x="1026" d="M166 0v1380h96v-282q98 18 213 18q238 0 359 -115q100 -100 100 -245q0 -195 -139 -305q-137 -111 -367 -111q-104 0 -166 12v-352h-96zM262 436q66 -14 170 -14q190 0 297 84q106 84 107 233q0 295 -365 295q-131 0 -209 -20v-578z" />
<glyph unicode="&#xdf;" horiz-adv-x="1056" d="M166 0v952q0 307 139 437q100 88 256 88q131 0 219 -80q98 -90 99 -246q0 -92 -45 -168q-164 -66 -164 -178q0 -84 125 -205q168 -168 168 -311q0 -137 -93 -223q-94 -88 -245 -89q-123 0 -215 50l26 82q102 -49 193 -50q113 0 178 64q61 59 61 149q0 135 -135 254 q-158 143 -158 262q0 158 191 250q18 41 18 99q0 125 -67 192q-66 66 -174 66q-279 0 -279 -447v-948h-98z" />
<glyph unicode="&#xe0;" horiz-adv-x="929" d="M80 248q0 174 149 266q156 96 451 94v27q0 291 -252 289q-145 0 -248 -74l-30 72q127 84 288 84q340 0 340 -388v-385q0 -145 15 -233h-91l-14 141h-4q-106 -164 -315 -164q-139 0 -219 86q-70 76 -70 185zM182 264q0 -100 60 -155q53 -49 137 -50q223 0 291 197 q10 27 10 59v211q-498 14 -498 -262zM186 1409h144l182 -283h-76z" />
<glyph unicode="&#xe1;" horiz-adv-x="929" d="M80 248q0 174 149 266q156 96 451 94v27q0 291 -252 289q-145 0 -248 -74l-30 72q127 84 288 84q340 0 340 -388v-385q0 -145 15 -233h-91l-14 141h-4q-106 -164 -315 -164q-139 0 -219 86q-70 76 -70 185zM182 264q0 -100 60 -155q53 -49 137 -50q223 0 291 197 q10 27 10 59v211q-498 14 -498 -262zM375 1126l182 283h143l-249 -283h-76z" />
<glyph unicode="&#xe2;" horiz-adv-x="929" d="M80 248q0 174 149 266q156 96 451 94v27q0 291 -252 289q-145 0 -248 -74l-30 72q127 84 288 84q340 0 340 -388v-385q0 -145 15 -233h-91l-14 141h-4q-106 -164 -315 -164q-139 0 -219 86q-70 76 -70 185zM182 264q0 -100 60 -155q53 -49 137 -50q223 0 291 197 q10 27 10 59v211q-498 14 -498 -262zM229 1126l187 283h71l193 -283h-98l-127 203h-4l-129 -203h-93z" />
<glyph unicode="&#xe3;" horiz-adv-x="929" d="M80 248q0 174 149 266q156 96 451 94v27q0 291 -252 289q-145 0 -248 -74l-30 72q127 84 288 84q340 0 340 -388v-385q0 -145 15 -233h-91l-14 141h-4q-106 -164 -315 -164q-139 0 -219 86q-70 76 -70 185zM182 264q0 -100 60 -155q53 -49 137 -50q223 0 291 197 q10 27 10 59v211q-498 14 -498 -262zM238 1171q-2 82 32 132q33 49 90 49q29 0 123 -45q57 -33 86 -33q51 0 58 84h67q0 -172 -123 -172q-41 0 -114 41q-70 37 -95 37q-49 0 -55 -93h-69z" />
<glyph unicode="&#xe4;" horiz-adv-x="929" d="M80 248q0 174 149 266q156 96 451 94v27q0 291 -252 289q-145 0 -248 -74l-30 72q127 84 288 84q340 0 340 -388v-385q0 -145 15 -233h-91l-14 141h-4q-106 -164 -315 -164q-139 0 -219 86q-70 76 -70 185zM182 264q0 -100 60 -155q53 -49 137 -50q223 0 291 197 q10 27 10 59v211q-498 14 -498 -262zM215 1264q0 31 23 55q25 25 55 24q76 0 76 -79q0 -80 -76 -80h-4q-74 0 -74 80zM561 1264q0 31 23 55q25 25 55 24q76 0 76 -79q0 -80 -76 -80h-4q-74 0 -74 80z" />
<glyph unicode="&#xe5;" horiz-adv-x="929" d="M80 248q0 174 149 266q156 96 451 94v27q0 291 -252 289q-145 0 -248 -74l-30 72q127 84 288 84q340 0 340 -388v-385q0 -145 15 -233h-91l-14 141h-4q-106 -164 -315 -164q-139 0 -219 86q-70 76 -70 185zM182 264q0 -100 60 -155q53 -49 137 -50q223 0 291 197 q10 27 10 59v211q-498 14 -498 -262zM270 1278q0 80 54 133q53 53 137 53h2q78 0 131 -53t53 -133q0 -76 -55 -129q-55 -51 -131 -51q-82 0 -135 53q-55 51 -56 127zM350 1278q0 -45 31 -82q33 -37 78 -37q49 0 82 37q31 35 30 86q0 51 -30 86q-33 35 -82 35h-2 q-47 0 -78 -37q-29 -37 -29 -88z" />
<glyph unicode="&#xe6;" horiz-adv-x="1546" d="M82 240q0 170 149 262q158 98 451 92v47q0 88 -41 164q-68 117 -213 117q-150 0 -246 -72l-30 70q129 86 280 86q260 0 313 -238h5q96 238 348 238q199 0 297 -172q68 -119 67 -259q0 -45 -4 -61h-684q-8 -217 92 -340q94 -113 254 -113q164 0 262 58l27 -78 q-123 -63 -297 -64q-133 0 -231 64q-104 68 -142 182h-4q-86 -246 -364 -246q-141 0 -219 84q-70 72 -70 179zM182 250q0 -88 60 -141q55 -51 139 -52q229 0 291 211q10 31 10 76v170q-500 14 -500 -264zM776 594h584q6 113 -55 211q-76 119 -215 119q-143 0 -232 -113 q-74 -96 -82 -217z" />
<glyph unicode="&#xe7;" horiz-adv-x="913" d="M84 481q0 233 143 379q141 145 363 146q168 0 258 -62l-35 -80q-98 57 -233 58q-188 0 -297 -129q-100 -119 -101 -304q0 -193 109 -309q109 -117 280 -117q125 0 244 58l29 -78q-123 -61 -277 -63l-59 -91q57 -6 98 -43q41 -39 41 -94q0 -158 -192 -158q-66 0 -123 33 l24 70q45 -27 109 -27q98 0 98 72q-2 76 -160 94l91 148q-184 18 -297 155t-113 342z" />
<glyph unicode="&#xe8;" horiz-adv-x="993" d="M84 473q0 242 127 389q121 143 315 144q211 0 312 -170q72 -119 71 -275q0 -41 -4 -59h-725q0 -221 111 -336q100 -102 264 -103q158 0 272 56l25 -76q-115 -63 -309 -63q-209 0 -336 139q-123 135 -123 354zM186 580h621q2 131 -57 223q-76 121 -236 121 q-147 0 -238 -115q-74 -94 -90 -229zM299 1409h143l183 -283h-76z" />
<glyph unicode="&#xe9;" horiz-adv-x="993" d="M84 473q0 242 127 389q121 143 315 144q211 0 312 -170q72 -119 71 -275q0 -41 -4 -59h-725q0 -221 111 -336q100 -102 264 -103q158 0 272 56l25 -76q-115 -63 -309 -63q-209 0 -336 139q-123 135 -123 354zM186 580h621q2 131 -57 223q-76 121 -236 121 q-147 0 -238 -115q-74 -94 -90 -229zM446 1126l183 283h143l-250 -283h-76z" />
<glyph unicode="&#xea;" horiz-adv-x="993" d="M84 473q0 242 127 389q121 143 315 144q211 0 312 -170q72 -119 71 -275q0 -41 -4 -59h-725q0 -221 111 -336q100 -102 264 -103q158 0 272 56l25 -76q-115 -63 -309 -63q-209 0 -336 139q-123 135 -123 354zM186 580h621q2 131 -57 223q-76 121 -236 121 q-147 0 -238 -115q-74 -94 -90 -229zM301 1126l186 283h72l193 -283h-99l-127 203h-4l-129 -203h-92z" />
<glyph unicode="&#xeb;" horiz-adv-x="993" d="M84 473q0 242 127 389q121 143 315 144q211 0 312 -170q72 -119 71 -275q0 -41 -4 -59h-725q0 -221 111 -336q100 -102 264 -103q158 0 272 56l25 -76q-115 -63 -309 -63q-209 0 -336 139q-123 135 -123 354zM186 580h621q2 131 -57 223q-76 121 -236 121 q-147 0 -238 -115q-74 -94 -90 -229zM287 1264q0 31 22 55q25 25 56 24q76 0 75 -79q0 -80 -75 -80h-5q-74 0 -73 80zM633 1264q0 31 22 55q25 25 56 24q76 0 75 -79q0 -80 -75 -80h-4q-74 0 -74 80z" />
<glyph unicode="&#xec;" horiz-adv-x="428" d="M-55 1409h143l182 -283h-75zM166 0v983h98v-983h-98z" />
<glyph unicode="&#xed;" horiz-adv-x="428" d="M129 1126l182 283h144l-250 -283h-76zM166 0v983h98v-983h-98z" />
<glyph unicode="&#xee;" horiz-adv-x="428" d="M-10 1126l186 283h72l192 -283h-98l-127 203h-4l-129 -203h-92zM166 0v983h98v-983h-98z" />
<glyph unicode="&#xef;" horiz-adv-x="428" d="M-35 1264q0 31 23 55q25 25 55 24q76 0 76 -79q0 -80 -76 -80h-4q-74 0 -74 80zM166 0v983h98v-983h-98zM311 1264q0 31 23 55q25 25 55 24q76 0 76 -79q0 -80 -76 -80h-4q-74 0 -74 80z" />
<glyph unicode="&#xf0;" horiz-adv-x="1067" d="M84 481q0 238 139 387q129 137 305 138q168 0 285 -119l4 6q-96 174 -278 324l-291 -142l-29 68l252 123q-90 72 -227 137l45 74q152 -78 266 -166l250 125l33 -70l-220 -109q178 -147 269 -337q90 -180 90 -408q0 -264 -146 -410q-125 -125 -309 -125q-193 0 -313 138 q-125 139 -125 366zM182 485q0 -180 101 -303q98 -123 239 -123h2q156 0 254 125q98 121 99 314q0 211 -84 311q-102 115 -263 115q-170 0 -266 -148q-82 -125 -82 -291z" />
<glyph unicode="&#xf1;" horiz-adv-x="1097" d="M158 983h92l6 -176h4q96 199 338 199q119 0 207 -70q137 -106 137 -346v-590h-98v582q0 342 -273 342q-102 0 -184 -66q-82 -63 -111 -162q-12 -45 -12 -86v-610h-98v748q0 131 -8 235zM322 1171q-2 82 32 132q33 49 90 49q29 0 123 -45q57 -33 86 -33q51 0 58 84h67 q0 -172 -123 -172q-41 0 -114 41q-70 37 -95 37q-49 0 -55 -93h-69z" />
<glyph unicode="&#xf2;" horiz-adv-x="1089" d="M84 483q0 242 141 387q131 135 324 136q205 0 330 -140q127 -141 127 -366q0 -254 -154 -398q-131 -125 -315 -125h-2q-195 0 -320 138q-131 141 -131 368zM182 489q0 -184 103 -307q102 -123 254 -123h2q156 0 260 123q106 125 106 314q0 160 -82 282q-100 145 -278 146 q-176 0 -277 -138q-88 -121 -88 -297zM313 1409h144l182 -283h-76z" />
<glyph unicode="&#xf3;" horiz-adv-x="1089" d="M84 483q0 242 141 387q131 135 324 136q205 0 330 -140q127 -141 127 -366q0 -254 -154 -398q-131 -125 -315 -125h-2q-195 0 -320 138q-131 141 -131 368zM182 489q0 -184 103 -307q102 -123 254 -123h2q156 0 260 123q106 125 106 314q0 160 -82 282q-100 145 -278 146 q-176 0 -277 -138q-88 -121 -88 -297zM455 1126l182 283h143l-250 -283h-75z" />
<glyph unicode="&#xf4;" horiz-adv-x="1089" d="M84 483q0 242 141 387q131 135 324 136q205 0 330 -140q127 -141 127 -366q0 -254 -154 -398q-131 -125 -315 -125h-2q-195 0 -320 138q-131 141 -131 368zM182 489q0 -184 103 -307q102 -123 254 -123h2q156 0 260 123q106 125 106 314q0 160 -82 282q-100 145 -278 146 q-176 0 -277 -138q-88 -121 -88 -297zM319 1126l187 283h72l192 -283h-98l-127 203h-4l-129 -203h-93z" />
<glyph unicode="&#xf5;" horiz-adv-x="1089" d="M84 483q0 242 141 387q131 135 324 136q205 0 330 -140q127 -141 127 -366q0 -254 -154 -398q-131 -125 -315 -125h-2q-195 0 -320 138q-131 141 -131 368zM182 489q0 -184 103 -307q102 -123 254 -123h2q156 0 260 123q106 125 106 314q0 160 -82 282q-100 145 -278 146 q-176 0 -277 -138q-88 -121 -88 -297zM317 1171q-2 82 33 132q33 49 90 49q29 0 123 -45q57 -33 86 -33q51 0 58 84h67q0 -172 -123 -172q-41 0 -114 41q-70 37 -95 37q-49 0 -55 -93h-70z" />
<glyph unicode="&#xf6;" horiz-adv-x="1089" d="M84 483q0 242 141 387q131 135 324 136q205 0 330 -140q127 -141 127 -366q0 -254 -154 -398q-131 -125 -315 -125h-2q-195 0 -320 138q-131 141 -131 368zM182 489q0 -184 103 -307q102 -123 254 -123h2q156 0 260 123q106 125 106 314q0 160 -82 282q-100 145 -278 146 q-176 0 -277 -138q-88 -121 -88 -297zM295 1264q0 31 22 55q25 25 56 24q76 0 76 -79q0 -80 -76 -80h-4q-74 0 -74 80zM641 1264q0 31 23 55q25 25 55 24q76 0 76 -79q0 -80 -76 -80h-4q-74 0 -74 80z" />
<glyph unicode="&#xf7;" horiz-adv-x="1220" d="M82 508v82h1057v-82h-1057zM526 188q0 92 84 93q84 0 84 -93q0 -90 -84 -90h-2q-37 0 -59 27q-25 27 -23 63zM526 907q0 92 84 92t84 -92q0 -90 -84 -90h-2q-37 0 -59 27q-25 27 -23 63z" />
<glyph unicode="&#xf8;" horiz-adv-x="1089" d="M84 483q0 242 141 387q129 135 324 136h2q143 0 256 -80l80 110l63 -41l-84 -121q139 -145 140 -370q0 -256 -150 -402q-129 -125 -311 -125q-154 0 -262 82l-84 -114l-58 49l82 117q-139 143 -139 372zM182 489q0 -178 94 -303h5l477 664q-82 74 -213 74 q-178 0 -279 -142q-84 -121 -84 -293zM334 129q84 -70 203 -70q164 0 268 125q102 125 102 314q0 168 -94 295h-4z" />
<glyph unicode="&#xf9;" horiz-adv-x="1087" d="M158 412v571h98v-553q0 -367 260 -367q205 0 291 199q18 55 18 109v612h99v-743q0 -139 8 -240h-92l-6 176h-5q-106 -199 -335 -199q-129 0 -215 78q-121 111 -121 357zM299 1409h143l183 -283h-76z" />
<glyph unicode="&#xfa;" horiz-adv-x="1087" d="M158 412v571h98v-553q0 -367 260 -367q205 0 291 199q18 55 18 109v612h99v-743q0 -139 8 -240h-92l-6 176h-5q-106 -199 -335 -199q-129 0 -215 78q-121 111 -121 357zM483 1126l183 283h143l-250 -283h-76z" />
<glyph unicode="&#xfb;" horiz-adv-x="1087" d="M158 412v571h98v-553q0 -367 260 -367q205 0 291 199q18 55 18 109v612h99v-743q0 -139 8 -240h-92l-6 176h-5q-106 -199 -335 -199q-129 0 -215 78q-121 111 -121 357zM319 1126l187 283h72l192 -283h-98l-127 203h-4l-129 -203h-93z" />
<glyph unicode="&#xfc;" horiz-adv-x="1087" d="M158 412v571h98v-553q0 -367 260 -367q205 0 291 199q18 55 18 109v612h99v-743q0 -139 8 -240h-92l-6 176h-5q-106 -199 -335 -199q-129 0 -215 78q-121 111 -121 357zM301 1264q0 31 23 55q25 25 55 24q76 0 76 -79q0 -80 -76 -80h-4q-74 0 -74 80zM647 1264 q0 31 23 55q25 25 55 24q76 0 76 -79q0 -80 -76 -80h-4q-74 0 -74 80z" />
<glyph unicode="&#xfd;" horiz-adv-x="901" d="M23 983h104l258 -643q39 -102 72 -211h4l76 217l239 637h105l-295 -733q-182 -471 -332 -600q-84 -70 -172 -103l-31 82q92 35 172 109q102 102 164 248q12 31 12 43t-12 43zM387 1126l182 283h144l-250 -283h-76z" />
<glyph unicode="&#xfe;" horiz-adv-x="1130" d="M164 -406v1768h98v-555h4q117 199 361 199q184 0 303 -140q117 -139 117 -358q0 -254 -138 -399q-125 -131 -313 -132q-219 0 -330 181h-4v-564h-98zM262 381q0 -47 12 -88q33 -109 125 -172q88 -61 203 -62q156 0 250 121q96 121 96 326q0 174 -90 293q-98 125 -256 125 q-104 0 -194 -66q-90 -68 -127 -178q-18 -59 -19 -111v-188z" />
<glyph unicode="&#xff;" horiz-adv-x="901" d="M23 983h104l258 -643q39 -102 72 -211h4l76 217l239 637h105l-295 -733q-182 -471 -332 -600q-84 -70 -172 -103l-31 82q92 35 172 109q102 102 164 248q12 31 12 43t-12 43zM225 1264q0 31 23 55q25 25 55 24q76 0 76 -79q0 -80 -76 -80h-4q-74 0 -74 80zM571 1264 q0 31 23 55q25 25 55 24q76 0 76 -79q0 -80 -76 -80h-4q-74 0 -74 80z" />
<glyph unicode="&#x152;" horiz-adv-x="1777" d="M76 680q0 338 190 534q182 188 479 189q49 0 177 -10q102 -12 135 -13h614v-82h-584v-532h551v-82h-551v-602h617v-82h-660q-43 0 -141 -12q-133 -10 -172 -11q-297 0 -477 199q-178 195 -178 504zM178 688q0 -287 152 -455q154 -174 422 -174q150 0 237 31v1198 q-109 33 -252 33q-266 0 -418 -182q-141 -172 -141 -451z" />
<glyph unicode="&#x153;" horiz-adv-x="1761" d="M84 483q0 238 135 383q127 139 318 140q297 0 389 -273h4q106 272 370 273q209 0 308 -172q70 -119 69 -271q0 -47 -4 -63h-696q-2 -209 98 -326q98 -113 264 -113q125 0 258 58l29 -76q-113 -66 -297 -66q-299 0 -405 271h-4q-47 -133 -162 -205q-102 -66 -230 -66 q-195 0 -317 140q-127 139 -127 366zM182 487q0 -180 103 -305q100 -123 247 -123q154 0 252 121t99 312q0 174 -82 292q-96 139 -269 140h-2q-174 0 -268 -148q-80 -121 -80 -289zM977 580h598q4 127 -55 223q-76 121 -228 121q-143 0 -231 -115q-70 -94 -84 -229z" />
<glyph unicode="&#x178;" horiz-adv-x="1030" d="M31 1380h108l228 -411q106 -195 157 -297h4q25 57 160 299l236 409h108l-465 -784v-596h-98v598zM285 1548q0 33 22 58q23 25 53 24q76 0 76 -82t-76 -82h-2q-74 0 -73 82zM637 1548q0 33 22 58q23 25 54 24q76 0 75 -82q0 -82 -75 -82h-2q-74 0 -74 82z" />
<glyph unicode="&#x2c6;" horiz-adv-x="614" d="M82 1126l186 283h72l192 -283h-98l-127 203h-4l-129 -203h-92z" />
<glyph unicode="&#x2dc;" horiz-adv-x="614" d="M82 1171q-2 82 31 132q35 49 92 49q29 0 123 -45q57 -33 86 -33q51 0 57 84h68q0 -172 -123 -172q-41 0 -115 41q-72 37 -94 37q-49 0 -55 -93h-70z" />
<glyph unicode="&#x2000;" horiz-adv-x="888" />
<glyph unicode="&#x2001;" horiz-adv-x="1776" />
<glyph unicode="&#x2002;" horiz-adv-x="888" />
<glyph unicode="&#x2003;" horiz-adv-x="1776" />
<glyph unicode="&#x2004;" horiz-adv-x="592" />
<glyph unicode="&#x2005;" horiz-adv-x="444" />
<glyph unicode="&#x2006;" horiz-adv-x="296" />
<glyph unicode="&#x2007;" horiz-adv-x="296" />
<glyph unicode="&#x2008;" horiz-adv-x="222" />
<glyph unicode="&#x2009;" horiz-adv-x="355" />
<glyph unicode="&#x200a;" horiz-adv-x="98" />
<glyph unicode="&#x2010;" horiz-adv-x="610" d="M61 520v86h488v-86h-488z" />
<glyph unicode="&#x2011;" horiz-adv-x="610" d="M61 520v86h488v-86h-488z" />
<glyph unicode="&#x2012;" horiz-adv-x="610" d="M61 520v86h488v-86h-488z" />
<glyph unicode="&#x2013;" horiz-adv-x="1024" d="M61 481v80h902v-80h-902z" />
<glyph unicode="&#x2014;" horiz-adv-x="2048" d="M61 481v80h1926v-80h-1926z" />
<glyph unicode="&#x2018;" horiz-adv-x="356" d="M82 963q70 291 158 444l69 10q-70 -184 -106 -434z" />
<glyph unicode="&#x2019;" horiz-adv-x="356" d="M82 963q70 184 106 434l121 20q-70 -291 -157 -444z" />
<glyph unicode="&#x201a;" horiz-adv-x="356" d="M47 -258q70 184 107 434l120 21q-70 -291 -157 -445z" />
<glyph unicode="&#x201c;" horiz-adv-x="600" d="M82 963q70 291 158 444l69 10q-70 -184 -106 -434zM326 963q70 291 157 444l70 10q-70 -184 -107 -434z" />
<glyph unicode="&#x201d;" horiz-adv-x="600" d="M82 963q70 184 106 434l121 20q-70 -291 -157 -444zM326 963q70 184 106 434l121 20q-70 -291 -158 -444z" />
<glyph unicode="&#x201e;" horiz-adv-x="600" d="M47 -258q70 184 107 434l120 21q-70 -291 -157 -445zM291 -258q70 184 106 434l121 21q-70 -291 -158 -445z" />
<glyph unicode="&#x2022;" horiz-adv-x="505" d="M74 537q-2 76 51 129q55 53 131 53t129 -53q55 -53 55 -129t-55 -129q-53 -53 -129 -54h-2q-76 0 -127 54q-53 53 -53 129z" />
<glyph unicode="&#x2026;" horiz-adv-x="2048" d="M262 70q0 92 84 92q82 0 82 -92t-84 -93h-2q-35 0 -59 29q-23 27 -21 64zM944 70q0 92 84 92q82 0 82 -92t-84 -93h-2q-35 0 -59 29q-23 27 -21 64zM1626 70q0 92 84 92q82 0 82 -92t-84 -93h-2q-35 0 -59 29q-23 27 -21 64z" />
<glyph unicode="&#x202f;" horiz-adv-x="355" />
<glyph unicode="&#x2039;" horiz-adv-x="503" d="M61 516l293 369h101l-291 -369l293 -369h-103z" />
<glyph unicode="&#x203a;" horiz-adv-x="503" d="M47 885h103l292 -369l-292 -369h-101l291 369z" />
<glyph unicode="&#x205f;" horiz-adv-x="444" />
<glyph unicode="&#x20ac;" d="M27 532v76h118v29q0 57 7 108h-125v76h135q37 242 184 387q152 145 363 146q141 0 252 -68l-31 -76q-90 61 -230 62q-168 0 -284 -111q-121 -115 -156 -340h608v-76h-620q-4 -61 -4 -98v-39h622v-76h-618q25 -221 139 -344q121 -127 307 -127q133 0 260 76l25 -71 q-121 -88 -297 -89q-221 0 -365 150q-139 145 -167 405h-123z" />
<glyph unicode="&#x2122;" horiz-adv-x="1228" d="M68 1317v63h450v-63h-188v-494h-74v494h-188zM547 823l45 557h108l131 -356l39 -117h4l37 113l131 360h109l49 -557h-78l-26 379l-6 119h-5l-45 -133l-129 -357h-84l-131 367q-12 41 -41 123h-4q0 -33 -4 -119l-26 -379h-74z" />
</font>
</defs>
</svg>
